<svg width="165" height="165" viewBox="0 0 165 165" fill="none" xmlns="http://www.w3.org/2000/svg"><g clip-path="url(#clip0_602_11427)"><path d="M164.33 0H0v164.33h164.33V0z" fill="#FABD00"/><path d="M22 18.86h-8.52V14.3h14.35v3.91l-6.62 27.43h-5.8l6.58-26.77.01-.01zm60.23 61.2c-13.36 0-24.19 10.83-24.19 24.2s10.83 24.2 24.19 24.2c13.36 0 24.19-10.83 24.19-24.2s-10.83-24.2-24.19-24.2zm-1.79 9.56c0-.81.81-1.69 1.8-1.69s1.79.89 1.79 1.69v8.31c0 .8-.8 1.68-1.79 1.68s-1.8-.88-1.8-1.68v-8.31zm1.8 27.04c-6.95 0-12.58-5.63-12.58-12.58 0-5.65 3.72-10.43 8.84-12.02v4.69a8.221 8.221 0 00-4.5 7.33 8.241 8.241 0 0016.48 0 8.24 8.24 0 00-4.52-7.35v-4.68c5.14 1.59 8.87 6.37 8.87 12.03 0 6.95-5.63 12.58-12.59 12.58zm-27.79-12.61c0-1.1-.97-1.99-1.86-1.99h-10.6c-.89 0-1.87.89-1.87 1.99s.98 1.99 1.87 1.99h10.6c.89 0 1.86-.89 1.86-1.99zm69.89 0c0-1.1-.97-1.99-1.86-1.99h-10.6c-.89 0-1.87.89-1.87 1.99s.98 1.99 1.87 1.99h10.6c.89 0 1.86-.89 1.86-1.99zm-42.1 42.11c1.1 0 1.98-.97 1.98-1.86v-10.59c0-.89-.89-1.87-1.98-1.87-1.09 0-1.99.98-1.99 1.87v10.59c0 .89.9 1.86 1.99 1.86zm36.54-21.2c.54-.95.14-2.21-.63-2.65l-9.2-5.26c-.78-.44-2.07-.16-2.61.79-.55.95-.14 2.22.64 2.66l9.2 5.26c.77.44 2.06.15 2.6-.81M61.32 140.6c.95.54 2.21.14 2.65-.63l5.26-9.19c.44-.78.16-2.07-.79-2.61-.95-.55-2.22-.14-2.66.64l-5.26 9.2c-.44.77-.15 2.06.81 2.6m41.9-.06c.95-.55 1.24-1.83.8-2.6l-5.28-9.19c-.45-.77-1.71-1.18-2.66-.63-.95.55-1.24 1.84-.79 2.62l5.28 9.18c.44.77 1.7 1.17 2.65.62zm-57.5-15.51c.55.95 1.83 1.24 2.6.79l9.18-5.28c.78-.44 1.18-1.7.63-2.65-.55-.95-1.84-1.24-2.62-.79l-9.18 5.28c-.77.44-1.17 1.7-.62 2.66m36.52-48.78c1.1 0 1.98-.97 1.98-1.86v-10.6c0-.89-.89-1.87-1.98-1.87-1.09 0-1.99.98-1.99 1.87v10.6c0 .89.9 1.86 1.99 1.86zM58.12 90.25c.55-.95.14-2.21-.63-2.65l-9.2-5.26c-.78-.44-2.07-.16-2.61.79-.55.95-.14 2.22.64 2.66l9.2 5.26c.77.44 2.06.15 2.6-.81m37.91-10.3c.95.54 2.2.14 2.65-.63l5.26-9.2c.44-.78.16-2.07-.79-2.61-.95-.55-2.22-.14-2.66.64l-5.26 9.19c-.44.77-.15 2.06.81 2.6m-27.65.04c.95-.55 1.24-1.83.79-2.6l-5.28-9.19c-.45-.77-1.7-1.18-2.66-.63-.95.55-1.24 1.84-.79 2.62l5.28 9.18c.44.77 1.7 1.17 2.65.62m37.941 10.23c.55.95 1.83 1.24 2.6.79l9.18-5.28c.78-.45 1.18-1.7.64-2.66-.55-.95-1.84-1.24-2.62-.79l-9.18 5.28c-.77.44-1.17 1.7-.62 2.65M40.64 26.92v-1.63h3.54v-6.16h-2.95V17.5h7.39v1.63h-2.96v6.16h3.6v1.63h-8.62zm15.38-4.76v5.59h-1.4c0-1.41 0-2.82.01-4.22-.74.76-1.92 1.55-2.81 1.94-.31-.52-.66-.99-1.02-1.44 1.75-.56 4.24-2.47 5.1-4.77-1.27.01-2.55.16-3.82.23-.02-.61-.05-1.21-.08-1.81 1.64 0 3.29-.01 4.93-.09.24 0 .48-.05.72-.11l.41.81c-.66 1.33-1.24 2.71-2.05 3.88l.01-.01zm-.5-4.94c-.69-.67-1.44-1.19-2.21-1.67.25-.47.48-.92.72-1.39.82.45 1.61 1.03 2.36 1.7-.28.47-.57.92-.88 1.36h.01zm3.33 8.08c-.68-1.09-1.51-1.94-2.35-2.75l.81-1.25c.89.61 1.81 1.61 2.5 2.59l-.96 1.41zm5.3-7.72c-.07 3.26.29 6.28-1.3 8.98-.3.52-.68.98-1.07 1.33-.36-.32-.89-.81-1.15-1.06 1.74-1.53 2.1-3.49 2.1-6.27 0-1.17-.02-2.4-.05-3.58l1.48.19c.07.02.12.05.12.16 0 .09-.07.19-.12.24l-.01.01zm4.1 8.77c-.59.46-1.23.81-1.85 1.19-.3-.27-.61-.51-.87-.82.07-.25.11-.51.11-.77V24c0-2.44-.03-4.92-.07-7.35l1.54.25c.06.02.12.08.12.19 0 .13-.1.22-.17.27-.02.68-.01 1.34-.01 2.02 0 1.91-.02 3.88-.05 5.79.88-.52 1.86-1.45 2.56-2.35.23-.29.44-.62.66-.93.02-.03.05-.08.08-.08.06 0 .06.16.06.19.05.66.12 1.29.21 1.94-.69.95-1.48 1.75-2.32 2.42v-.01zm9.34-2.48c.07 1.43.13 2.85.22 4.29-.48.05-.95.07-1.43.13-.05-1.45-.12-2.88-.16-4.33-1.25.04-2.49.09-3.74.18l-.03-1.61c.29.02.57.03.86.04.95.02 1.89-.06 2.84-.09-.04-.84-.07-1.65-.12-2.49-.85 0-1.7.06-2.55.1-.01-.54-.06-1.09-.08-1.63.83.02 1.68.01 2.52-.03-.05-.9-.11-1.78-.18-2.67l1.52.18c.09.02.19.09.18.23 0 .13-.09.24-.19.28.01.66.03 1.3.04 1.96.9-.02 1.79-.09 2.68-.21-.01.57 0 1.12-.01 1.67-.86 0-1.73 0-2.58.03.04.82.07 1.64.12 2.47 1.19-.05 2.39-.12 3.58-.24.01.55-.01 1.1 0 1.64-1.15-.01-2.32.06-3.47.11l-.02-.01zm1.63-6.27c-.19-.86-.46-1.68-.73-2.5l1.05-.44c.27.77.48 1.58.66 2.39l-.98.56v-.01zm1.73-.38c-.21-.88-.43-1.75-.72-2.57l1.01-.4c.28.81.51 1.54.68 2.38l-.97.59zm10.75 5.81c-.68-.04-1.21-.04-1.75-.04-.63-.02-4.95 0-6.46.06-.02-.58-.06-1.32-.07-1.75-.02-.22.08-.23.15-.22.2.06.58.09.69.1.72.04 1.49.03 2.32.03 1.72 0 3.25-.05 5.18-.07-.04.58-.05 1.31-.06 1.89zm10.579-1.13s-.1-.03-.15-.07c-.74.3-2.16.99-2.83 1.36v2.23h-1.21c.01-.22.01-.43.01-.68v-.81c-.82.47-1.23 1.06-1.23 1.72 0 .58.47.88 1.4.88 1.01 0 1.93-.16 2.98-.58l-.04 1.7c-.9.36-1.89.42-2.57.42-2 0-3.01-.77-3.01-2.32 0-.75.28-1.45.84-2.09.35-.39.87-.81 1.56-1.24-.02-.66-.19-.99-.48-.99-.38 0-.73.18-1.05.55-.21.23-.47.54-.79.99-.38.51-.61.86-.75 1.03-.19-.26-.47-.65-.85-1.19 1.14-1.09 2-2.41 2.58-3.93-.54.08-1.15.14-1.8.19-.04-.55-.1-1.06-.16-1.51.96 0 1.75-.04 2.34-.15.12-.42.23-1.09.35-2l1.38.38c.08.03.12.09.12.17 0 .09-.05.16-.16.22-.05.25-.15.63-.28 1.12.47-.07 1.16-.29 1.91-.54l-.12 1.59c-.56.15-1.32.29-2.26.45-.14.44-.38.97-.63 1.45.25-.09.45-.1.58-.1.62 0 1.03.5 1.22 1.55.82-.52 1.75-1.06 2.76-1.61l.47 1.62c0 .12-.04.17-.12.17l-.01.02zm10.421 3.86c-.45-.45-.91-.92-1.39-1.3-.44 1.35-1.31 3.02-2.25 3.68l-1.06-.9c1.01-.68 1.78-2.03 2.22-3.5-.62-.41-1.26-.75-1.95-.93-.17.51-.33 1.03-.53 1.52-.48 1.21-1.13 2.43-2.24 2.41-.91-.02-1.52-1.07-1.49-2.33.04-1.62 1.02-2.74 2.08-3.05.44-.13.89-.13 1.33-.11.26-1.02.66-2.46.92-3.54l-2.28.16-.16-1.59h.12c.76.09 3.07.08 3.73-.17.12.26.26.52.41.77-.35.89-.62 1.52-.88 2.45-.2.7-.37 1.4-.6 2.08.69.17 1.32.43 1.94.81.24-.97.37-2.03.42-3.05.41.36.82.71 1.21 1.1-.1.9-.23 1.8-.45 2.65.52.35 1.06.71 1.57 1.16-.21.56-.42 1.14-.64 1.7l-.03-.02zm-7.48-1.42c0 .38.1.72.4.73.19 0 .33-.08.46-.26.36-.45.74-1.6.93-2.22-.76.05-1.76.48-1.79 1.76v-.01zm15.549 3.39c-1.46 0-1.35-1.72-1.35-3.07v-1.34c0-.39 0-.87-.4-.87-.1 0-.19.03-.29.06-1.65.54-2.27 3.38-2.78 5.17-.44-.27-.87-.53-1.3-.79.45-1.39.95-2.74 1.47-4.11.58-1.52 1.15-3.05 1.74-4.57.33-.85.63-1.71.99-2.53.4.21 1.01.51 1.38.78.04.03.08.07.08.14 0 .11-.1.18-.19.19-.73 1.42-1.39 2.93-2.06 4.39-.07.14-.13.27-.2.4.45-.29.95-.54 1.46-.54 1.06 0 1.39.91 1.4 2.13 0 .73-.01 1.45 0 2.18 0 .36.05.87.42.87.48 0 .88-.37 1.23-.76.45-.52.65-1.06.97-1.72.18.67.35 1.33.51 2.01-.73 1.37-1.75 2-3.06 2.01l-.02-.03zm9.48-8.95c-.54.1-.99.17-1.52.22-.57 1.94-1.33 4.45-2.4 6.23-.39-.24-.77-.51-1.14-.79.98-1.64 1.7-3.66 2.24-5.45-.53.03-1.21 0-1.74-.04 0-.48 0-.97.01-1.47.19.05.38.07.58.1.49.06.99.09 1.48.07.2-.82.26-1.41.33-2.21.58 0 1.11.05 1.52.08-.06.49-.32 1.54-.5 2.1.45-.05.89-.19 1.33-.31-.06.48-.13.97-.19 1.46v.01zm3.15 8.59c-.43-.56-.88-1.14-1.4-1.58 0 .16-.01.32-.03.47-.11 1.47-.99 1.8-1.99 1.73-.35-.03-.7-.11-1.04-.27-.65-.34-1.29-1.13-1.22-2.13.11-1.44 1.07-2.1 2.11-2.02.3.02.61.08.9.15.02-.67-.08-1.33-.05-2 .02-.34.06-.64.18-.97.33.02.66.03 1 .05.07 0 .39-.04.38.13 0 .03 0 .05-.01.06-.15.25-.22.56-.24.86-.04.76.04 1.53.04 2.3.78.42 1.66 1.15 2.27 1.88-.29.46-.59.93-.91 1.35l.01-.01zm-2.67-2.27c-.23-.15-.5-.2-.78-.22-.42-.03-.95.07-1 .74-.05.66.57 1.01 1 1.04.41.03.72-.04.76-.66.02-.3.02-.6.02-.9zm3.06-4.9c-.75-.75-1.67-1.01-2.59-1.3l.62-1.37c.92.3 1.91.51 2.65 1.3l-.68 1.37zM57.13 45.22c-.82.66-1.79.96-2.74.96-1.47 0-2.39-1.14-2.47-3.15-.02-.27-.01-.54-.01-.8 0-.76.01-1.52.03-2.3.03-1.82.05-3.66.07-5.48.32.06.65.13.97.21.13.03.28.04.4.1.08.04.18.1.18.22 0 .11-.08.2-.15.24-.12 2.46-.22 4.94-.22 7.4 0 1.25.41 2.02 1.38 2.02.44 0 .9-.15 1.31-.41.95-.55 1.61-1.74 2.08-2.95l.76 1.84c-.37.78-1 1.62-1.59 2.1zm10.3-8.72s-.09-.02-.13-.02c-.46-.02-.94.03-1.4.24-1.3.58-2.31 2.42-2.38 4.4-.1 2.92 1.77 3.34 3.35 3.41-.1.55-.2 1.11-.32 1.65h-.21c-.7-.03-1.52-.24-2.16-.6-1.21-.68-2.14-2.64-2.07-4.58.06-1.71.5-3 1.35-4.26-1.19.1-2.38.25-3.56.45 0-.56-.02-1.12-.01-1.68 2.05-.07 4.08-.18 6.12-.52.48-.09.95-.19 1.42-.34.02.22.15 1.62.14 1.73 0 .12-.07.14-.14.14v-.02zm10.55 1.09c-.17.56-.31 1.15-.5 1.69-.7 1.99-1.42 3.51-2.65 4.94-.88 1-1.87 1.82-2.94 2.35-.37-.46-.75-.91-1.14-1.33.59-.3 1.17-.6 1.72-1.02.66-.55 1.33-1.13 1.87-1.9.92-1.3 1.57-2.77 2.01-4.51l-2.46.05c-.65 1.29-1.45 2.52-2.36 3.48-.33-.39-.66-.8-1.02-1.16 1.53-1.57 2.61-3.82 3.25-6.32l1.38.65c.07.03.13.11.13.22 0 .14-.12.2-.2.2-.16.42-.29.86-.47 1.25.89 0 1.77-.02 2.66-.02.18 0 .38-.02.57-.08.13.26.28.5.4.77-.08.25-.17.5-.24.73l-.01.01zm4.81-2.04v.59c0 1.89 0 3.79.01 5.68h-1.5c.01-.35.02-.71.02-1.04v-2.09c0-1.24-.01-2.48-.06-3.71l1.58.17c.06 0 .11.05.11.13 0 .12-.1.21-.17.27h.01zm4.42.02c0 .86.02 1.7.02 2.56 0 2.48-.05 4.88-1.35 6.89-.4.61-.88 1.13-1.47 1.51-.39-.32-.81-.71-1.23-.97.48-.35 1.03-.82 1.4-1.35 1.1-1.56 1.16-3.44 1.16-5.43 0-1.3-.07-2.59-.13-3.88l1.57.18c.09.02.19.07.19.2s-.09.23-.17.29h.01zm10.8 5.54c-.67-.04-1.2-.04-1.74-.04-.63-.01-4.8 0-6.3.06-.02-.56-.06-1.28-.07-1.71-.01-.21.09-.23.16-.21.2.06.58.08.68.1.72.04 2.12.03 2.94.03 1.71 0 2.48-.04 4.39-.07-.03.56-.04 1.29-.06 1.85v-.01zm4.83 3.79c-.59.35-1.18.63-1.82.82-.06-.18-.71-1.89-.71-1.89 0-.06.05-.06.08-.06.14 0 .3-.03.44-.08 1.15-.3 2.26-.98 3.29-1.78 1.39-1.08 2.69-2.44 3.85-4.01.09.74.19 1.48.28 2.23-1.6 2.1-3.42 3.61-5.42 4.78l.01-.01zm-.24-6.11c-.62-1.05-1.29-2-2.06-2.82.4-.42.78-.88 1.18-1.31.74.79 1.4 1.72 1.99 2.77-.33.51-.71.94-1.1 1.36h-.01zm10.35 7.16c-.4.04-.79.1-1.2.16-.49-1.76-.57-3.67-.57-5.54 0-2.09.24-4.19.57-6.24l.96.25c.14.05.33.06.47.13.07.03.12.07.12.19s-.1.19-.18.19c-.44 2.05-.64 4.35-.64 6.47 0 .53.02 1.04.02 1.58.2-.66.39-1.34.6-2l.82.85c-.48 1.31-.83 2.48-.98 3.96h.01zm7-.69c-.61.15-1.4.15-2.01.12-1.57-.05-3.04-.34-3.23-3.01.37-.31.74-.64 1.12-.93 0 1.52.64 2.2 1.67 2.23.81.03 1.7-.03 2.48-.33 0 .64-.02 1.27-.02 1.92h-.01zm-.4-7.88c-.85-.2-1.69-.26-2.55-.18-.59.06-1.18.18-1.76.34-.05-.53-.08-1.18-.13-1.7.82-.25 1.66-.25 2.5-.33.69-.07 1.38 0 2.08.12-.04.58-.07 1.17-.12 1.75h-.02zm18.829-9.79c-.39.04-.77.1-1.17.16-.48-1.76-.56-3.66-.56-5.52 0-2.08.24-4.18.56-6.22l.93.25c.14.05.32.06.46.13.07.03.12.07.12.19s-.1.19-.17.19c-.43 2.04-.62 4.34-.62 6.45 0 .53.02 1.04.02 1.57.19-.66.38-1.34.58-2 .27.28.54.57.8.85-.47 1.3-.81 2.48-.95 3.95zm6.93-.86c-.59.15-1.36.14-1.96.12-1.53-.05-2.96-.34-3.15-3 .36-.31.72-.64 1.09-.93 0 1.51.62 2.19 1.62 2.23.79.03 1.66-.03 2.41-.33 0 .63-.02 1.27-.02 1.91h.01zm-.39-7.86c-.83-.2-1.64-.26-2.48-.18-.58.05-1.15.18-1.72.34-.05-.53-.08-1.18-.13-1.7.8-.25 1.61-.25 2.43-.33.68-.07 1.35 0 2.02.12-.04.58-.07 1.17-.12 1.75zM45.56 40.2c-.65.49-1.1 1.82-.91 2.94.22 1.33 1.71 1.47 2.49 1.46.25 0 .51-.03.76-.06-.11.52-.24 1.02-.35 1.53h-.23c-1.52.04-3.7-.21-3.95-2.74-.15-1.55.24-2.77.83-3.51-1.27.23-2.54.56-3.76 1.03-.08-.51-.2-1.02-.3-1.52.65-.17 1.37-.23 1.99-.56.64-.34 2.04-2.18 2.56-2.89-.76.08-1.52.14-2.27.11 0-.48-.02-.96-.06-1.43 1.12.07 2.3.13 3.42-.09.3-.06.58-.2.85-.35.23.42.45.86.65 1.3-1.11.88-2.21 2.16-3.21 3.25 1.59-.26 3.2-.45 4.79-.59 0 .54 0 1.09-.01 1.64-.94-.09-2.45-.14-3.3.49l.01-.01z" fill="#fff"/></g><defs><clipPath id="clip0_602_11427"><path fill="#fff" d="M0 0h164.33v164.33H0z"/></clipPath></defs></svg>