<svg width="165" height="165" viewBox="0 0 165 165" fill="none" xmlns="http://www.w3.org/2000/svg"><g clip-path="url(#clip0_602_11832)"><path d="M164.33 0H0v164.33h164.33V0z" fill="#C60F28"/><path d="M22 38.2h-9.44v-4.72l8.16-19.19h6.69v19.38h3.13v4.53h-3.13v7.43h-5.42V38.2H22zm0-4.53V20.36l-4.76 13.31H22zm50.83 54.47l-29.61-17.1v55.31l29.61 8.93V88.14zm3.25.11v47.05l29.8-8.96V71.05l-29.8 17.2zm46.91 37.12h-.87l3.51 12.24 3.49-12.24h-.87.87V76.16h-7v49.21h.87z" fill="#fff"/><path d="M112.24 73.42l-3.17-2.51v56.94l-32.9 10.63h-3.34l-32.76-9.15V70.91l-3.17 2.51v58.14l35.78 9.9h3.64l33.01-10.48 2.91-.86v-56.7zm16.891-3.78c0-1.94-1.57-3.5-3.5-3.5s-3.5 1.57-3.5 3.5v3.78h7v-3.78zM46.69 17.18v1.52h-1.27v-1.56h-.81c-.11 1.07-.6 1.96-1.33 2.61l-1.03-.72c1.04-.84 1.06-1.65 1.06-3.01 0-.52-.02-1.04-.04-1.57l1.11.08c.61-.08 1.92-.39 2.39-.64l.98 1.19c0 .11-.12.15-.2.15-.08 0-.17-.04-.24-.08-.88.17-1.77.27-2.66.35 0 .2 0 .38-.01.58h4.31v1.1h-2.26zm5.09.13v1.39h-1.39v-1.47h-.95c-.16.76-.58 1.41-1.14 1.82h3.46v5.51h-1.42c.67.59 2.12.9 2.96 1.02l-.89 1.33c-1.32-.37-2.62-.89-3.82-1.62.27-.26.57-.45.82-.72h-3.18c.11.13.74.72.74.83 0 .1-.1.14-.17.14-.05 0-.1-.01-.15-.03-1.12.59-2.3 1.12-3.52 1.36l-.77-1.16c1.04-.21 2.05-.38 2.92-1.14h-1.31v-5.51h3.96c-.24-.14-.47-.31-.7-.46.77-.55.99-1.06.99-2.1 0-.69-.02-1.4-.05-2.09l1.11.09c.59-.06 1.77-.31 2.37-.62l1.11 1.14c.05.05.13.12.13.21 0 .11-.16.13-.22.13-.11 0-.22-.03-.31-.09-.95.12-1.91.21-2.86.25v.62h3.83v1.17h-1.56.01zm-1.45 2.75h-5.09v.58h5.09v-.58zm0 1.47h-5.1v.55h5.1v-.55zm0 1.45h-5.1v.56h5.1v-.56zm10.84 3c-.37-.41-.71-.85-1.08-1.24 1.9-.54 3.66-1.31 3.66-3.99 0-1.82-.94-3.47-2.52-3.83-.33 2.44-.97 6.32-2.86 7.75-.35.27-.7.45-1.12.45-.5 0-.98-.39-1.29-.82-.57-.76-.77-1.9-.77-2.89 0-3.45 2.45-5.89 5.32-5.89 2.65 0 4.81 1.85 4.81 5.13 0 3.07-1.76 4.68-4.15 5.33zm-4.25-6.5c-.23.61-.34 1.27-.34 1.93 0 .58.11 2.07.78 2.07.24 0 .45-.27.59-.45 1.13-1.35 1.62-4.24 1.74-6.09-1.08.23-2.33 1.36-2.77 2.54zm10.73-2.99V15.2h4.22v-1.38l1.51.1c.08 0 .19.04.19.17 0 .11-.12.21-.21.24v.87h4.36v1.29H67.65zm7.73 10.23l-.92-1.14c.84-.17 1.57-.28 1.57-1.51v-2.58H69.4v4.91h-1.37v-6h9.43v3.78c0 1.65-.74 2.34-2.08 2.55v-.01zm-5.95-6.87v-2.89h6.49v2.89h-6.49zm.77 5.38v-3.12h5.04v3.12H70.2zm4.36-7.25h-3.82v.88h3.82v-.88zm-.61 5.13h-2.48v1.06h2.48v-1.06zm8.63 2.88c-.35 0-.68-.15-.94-.41-1.04-1.07-1.37-3.09-1.41-4.64-.04-1.3.06-2.6.24-3.87.06-.49.12-.97.2-1.46.38.1 1.39.43 1.71.63.05.03.09.08.09.15 0 .15-.14.24-.25.28-.24.72-.4 2.05-.46 2.85-.06.6-.04 1.19-.03 1.79.02.62.11 1.29.29 1.88.08.26.26.91.57.9.58-.02 1.3-1.88 1.55-2.46l.76 1.8c-.36.94-1.37 2.53-2.32 2.56zm5.89-2.29c-.27-2.26-.82-4.12-2.04-5.95.5-.24.96-.52 1.46-.74 1.08 1.55 1.85 4.01 2.13 5.96-.51.27-1.02.5-1.55.73zm10.19-8.12c-.43.91-.91 1.83-1.47 2.65h.78v1.14h-1.54c-.18.22-.35.45-.54.68h1.66v.97c-.41.49-.83.96-1.3 1.38v.35c.66-.11 1.34-.22 2-.38l-.11 1.3c-.6.17-1.22.27-1.82.39v.83c0 1.34-.65 1.93-1.7 2.2l-.89-1.03c1.04-.3 1.25-.49 1.25-1.78-.54.13-1.1.24-1.64.37-.01.08-.09.24-.17.24-.07 0-.11-.05-.13-.13l-.55-1.44c.82-.1 1.64-.24 2.45-.4 0-.45-.02-.92-.02-1.37l.74.04c.17-.19.32-.39.46-.63h-1.11c-.65.65-1.36 1.2-2.14 1.62l-.83-.96c1.04-.58 2.01-1.31 2.82-2.28h-2.52v-1.17h2.03v-1.21h-1.55v-1.29h1.54v-1.75l1.43.13c.07 0 .14.04.14.14 0 .12-.1.21-.18.26v1.24h1.74l-.83.81c.3-.69.58-1.38.79-2.11l1.32.8c.07.04.14.11.14.23 0 .15-.17.17-.25.15v.01zm-2.94 1.37v1.25c.27-.39.52-.82.75-1.25h-.75zm7.02 9.84c-.7-.51-1.58-1.58-2.09-2.35a9.133 9.133 0 01-2.98 2.51l-.88-1.1c1.17-.46 2.37-1.39 3.05-2.62-.42-.89-.71-1.83-.94-2.81-.15.27-.31.54-.49.78l-.83-.9c1.05-1.64 1.71-4.34 1.91-6.36l1.53.48c.08.03.16.14.16.24 0 .13-.18.24-.27.27-.17.66-.35 1.34-.55 1.99h3.03v1.26h-.66c-.13 1.66-.47 3.65-1.24 5.09.6.99 1.44 1.75 2.3 2.38l-1.05 1.15v-.01zm-2.82-8.62l-.12.31c.15 1.15.45 2.27.84 3.34.38-1.16.6-2.41.67-3.65h-1.39zm12.99-1.61c.74.86 1.52 1.67 2.22 2.56l-1.08.99c-.31-.44-.62-.86-.98-1.24-2.48.23-4.98.29-7.48.45l-.29-1.37h1.24c.17 0 .34-.07.47-.2.36-.32.65-.79.94-1.2h-3.05v-1.21h4.42v-1.45l1.7.11c.09 0 .15.1.15.2 0 .13-.17.24-.25.28v.86h4.45v1.21h-2.45l-.01.01zm-.95 10.21l-.87-1.04c.81-.14 1.3-.29 1.3-1.38h-4.62v2.31h-1.36v-6.85h7.39v4.82c0 1.41-.7 2.03-1.85 2.14h.01zm-4.2-5.89v.63h4.63v-.63h-4.63zm4.65 1.68h-4.65v.69h4.65v-.69zm-2.39-5.99c-.51.48-.99 1.02-1.53 1.45 1.22-.04 2.45-.13 3.67-.2-.22-.2-.42-.42-.62-.63.35-.2.7-.39 1.04-.62h-2.56zm16.85 4.41a.34.34 0 01-.18-.07c-.87.29-2.55.96-3.34 1.32v2.17h-1.42c.01-.21.01-.42.01-.66v-.79c-.97.45-1.45 1.03-1.45 1.68 0 .56.56.86 1.65.86 1.19 0 2.28-.15 3.51-.56l-.05 1.65c-1.06.35-2.23.41-3.03.41-2.37 0-3.55-.74-3.55-2.26 0-.73.34-1.41.99-2.03.41-.38 1.03-.79 1.83-1.21-.02-.63-.22-.96-.57-.96-.45 0-.86.17-1.24.54-.24.22-.55.52-.93.95-.45.5-.72.83-.89 1-.22-.26-.55-.63-1-1.16 1.35-1.06 2.37-2.34 3.04-3.82-.64.08-1.35.14-2.12.18-.05-.54-.12-1.03-.19-1.46 1.13 0 2.06-.04 2.76-.14.14-.41.28-1.06.41-1.95l1.63.37c.1.03.15.08.15.17 0 .09-.06.15-.19.21-.06.24-.17.61-.32 1.08.55-.07 1.37-.28 2.25-.52l-.13 1.55c-.66.14-1.56.28-2.66.44-.17.42-.45.94-.75 1.41.29-.08.53-.1.69-.1.74 0 1.22.49 1.44 1.51.96-.51 2.06-1.03 3.26-1.56l.55 1.58c0 .11-.05.17-.15.17h-.01zM52.73 42.23c-.53-.42-1.07-.86-1.64-1.21-.47 1.3-1.42 2.93-2.48 3.57l-1.25-.83c1.15-.67 1.99-1.97 2.46-3.39-.72-.38-1.48-.69-2.25-.85-.17.5-.36.99-.58 1.46-.52 1.17-1.17 2.35-2.4 2.35-1.01 0-1.72-.98-1.72-2.2 0-1.55 1.06-2.65 2.23-2.97.48-.13.99-.14 1.47-.13.34-.88.71-2.5.88-3.46l-2.57.45-.28-1.68h.13c.84 0 3.35-.21 4.06-.53.18.24.39.46.59.68-.25.89-.53 1.77-.8 2.66-.21.68-.4 1.35-.63 2.01.77.15 1.53.38 2.26.73.25-.94.36-1.95.4-2.93.48.33.96.66 1.42 1.02-.1.87-.22 1.72-.45 2.55.61.32 1.24.64 1.83 1.07-.22.54-.45 1.1-.69 1.64l.01-.01zm-8.52-1.17c0 .37.13.69.46.69.22 0 .36-.09.51-.26.39-.44.78-1.55.98-2.15-.84.08-1.94.5-1.94 1.73l-.01-.01zm17.48 3.35c-1.6 0-1.48-1.71-1.48-3.04v-1.32c0-.39.01-.86-.44-.86-.11 0-.22.03-.32.06-1.81.53-2.5 3.33-3.07 5.09-.48-.26-.95-.53-1.42-.79.49-1.37 1.05-2.71 1.62-4.05.64-1.5 1.26-3.02 1.92-4.52.36-.83.7-1.68 1.09-2.5.45.21 1.11.52 1.52.78.05.02.08.07.08.14 0 .11-.11.18-.2.18-.81 1.4-1.53 2.89-2.27 4.33-.07.14-.14.27-.22.39.49-.28 1.05-.53 1.61-.53 1.17 0 1.53.9 1.53 2.11 0 .72-.01 1.43-.01 2.15 0 .36.05.86.46.86.53 0 1.14-.5 1.52-.89.49-.51.88-1.18 1.23-1.83.19.67.38 1.32.56 1.99-.81 1.35-2.26 2.25-3.69 2.25h-.02zm11.23-9.17c-.59.17-1.17.31-1.76.42-.63 2.17-1.5 4.74-2.63 6.61-.45-.22-.9-.49-1.33-.76 1.03-1.72 1.87-3.68 2.41-5.68-.59.1-1.2.14-1.8.15-.06-.49-.13-.98-.19-1.49.22.03.44.03.66.03.56 0 1.12-.03 1.68-.12.18-.79.28-1.62.33-2.44.57.08 1.12.15 1.68.28-.14.65-.29 1.31-.48 1.96.49-.11.97-.31 1.45-.48 0 .5-.01 1-.01 1.51l-.01.01zm3.37 8.62c-.5-.52-1.01-1.05-1.6-1.45v.46c-.05 1.46-1 1.85-2.08 1.85a3.4 3.4 0 01-1.14-.18c-.72-.28-1.46-1.02-1.42-2 .05-1.42 1.07-2.14 2.2-2.14.33 0 .66.03.99.08-.01-.66-.04-1.32-.01-1.99.01-.34.06-.63.18-.96h1.09c.07 0 .42-.06.42.11 0 .03 0 .04-.01.06-.15.25-.24.56-.25.86-.03.75 0 1.48.03 2.23.87.35 1.86 1 2.56 1.68-.29.48-.6.96-.93 1.39h-.03zm-3-2.03c-.26-.12-.56-.15-.87-.15-.46 0-1.03.14-1.06.8-.02.65.67.95 1.14.95.45 0 .78-.1.8-.7.01-.3 0-.59-.01-.89v-.01zm3.22-4.71c-.84-.78-1.9-1.32-2.93-1.62l.7-1.41c1.04.31 2.16.81 3.01 1.62l-.77 1.41h-.01zm5.62 7.17c-.44.04-.88.1-1.33.16-.55-1.73-.63-3.6-.63-5.43 0-2.05.27-4.11.63-6.12l1.06.24c.16.04.37.06.52.13.07.03.14.07.14.19s-.11.19-.2.19c-.49 2.01-.71 4.27-.71 6.35 0 .52.03 1.03.03 1.54.22-.65.43-1.31.66-1.96.31.28.61.56.91.84-.54 1.28-.92 2.43-1.08 3.88v-.01zm7.89-.41c-.67.15-1.55.14-2.23.12-1.74-.05-3.37-.33-3.58-2.95.41-.3.82-.62 1.24-.91 0 1.49.71 2.16 1.84 2.19.9.03 1.89-.03 2.75-.33 0 .62-.02 1.24-.03 1.88h.01zm-.3-8a9.55 9.55 0 00-2.82-.17c-.66.05-1.31.18-1.95.33-.05-.52-.09-1.15-.15-1.67.91-.25 1.83-.25 2.77-.33.77-.06 1.53 0 2.3.11-.04.57-.08 1.15-.14 1.72l-.01.01z" fill="#fff"/></g><defs><clipPath id="clip0_602_11832"><path fill="#fff" d="M0 0h164.33v164.33H0z"/></clipPath></defs></svg>