<svg width="166" height="165" viewBox="0 0 166 165" fill="none" xmlns="http://www.w3.org/2000/svg"><g clip-path="url(#clip0_602_11541)"><path d="M1.22 0L.99 164.11l164.11.229.229-164.11L1.219 0z" fill="#427935"/><path d="M15.54 20.48c-.28.15-1.11.48-2.48.97-1.08.36-1.77.61-2.05.74v-4.45c.88-.33 1.94-.85 3.19-1.55 1.25-.7 2.13-1.33 2.65-1.9h4.68v31.33h-6V20.48h.01zM26.6 43.69c-1.32-1.65-1.97-3.98-1.97-7v-1.08h5.96v1.04c.03 1.6.22 2.75.58 3.44.36.7 1.02 1.04 1.97 1.04s1.59-.35 1.91-1.06c.32-.71.48-1.86.48-3.46 0-1.6-.25-2.92-.74-3.73s-1.39-1.23-2.71-1.26c-.08-.03-.44-.04-1.08-.04v-4.37h.97c1.34 0 2.27-.36 2.79-1.08.52-.72.77-1.91.77-3.56 0-1.34-.19-2.33-.56-2.98-.37-.64-1.04-.97-1.99-.97-.9 0-1.52.35-1.86 1.04-.34.7-.52 1.73-.54 3.09v1.39h-5.96v-1.7c0-2.73.73-4.85 2.19-6.34 1.46-1.5 3.51-2.24 6.17-2.24s4.8.72 6.27 2.17c1.47 1.44 2.21 3.52 2.21 6.23 0 1.81-.37 3.32-1.12 4.55-.75 1.23-1.7 1.99-2.86 2.3 2.66.98 3.98 3.44 3.98 7.39 0 3.02-.67 5.38-2.01 7.1-1.34 1.72-3.47 2.57-6.38 2.57-2.91 0-5.15-.83-6.46-2.48h-.01zm118.35 59.37c-4.34-6.11-23.98-30.49-60.55-30.54-36.58-.05-56.28 24.28-60.64 30.38-.19.26-.35.49-.48.68.13.2.29.42.47.69 4.35 6.1 23.98 30.49 60.56 30.54 36.57.05 56.28-24.28 60.64-30.37.19-.26.35-.49.47-.68-.13-.19-.28-.42-.47-.68M63.98 87.91c.33-.48 1.43-1.86 1.56-2.04.28-.36.84-.44 1.23-.5.39-.07.91.14.97.44.07.29-.15 1.42-.34 1.62-.54.56-1.93 1.34-2.7 1.22-.6-.09-.83-.55-.71-.73m-1.31 2.6c.06-.07.11-.13.13-.15.46-.52 1.38-.63 2.01-.73.63-.11 1.48.21 1.58.63.11.42-1.59 1.19-1.9 1.47-.88.81-2.26 2.46-3.07 2.64-.26.06-.48.02-.66-.07.53-1.32 1.17-2.59 1.9-3.79m13.65 28.1c-.5 1.95-1.08 2.65-1.57 3.26-.49.62-2.32 1.41-3.48 1.32-1.16-.09-1.32-3.18-1.31-4.77 0-.55-.78 1.08-1.18-2.23-.26-2.12-1.62.22-1.71-1.19-.1-1.41-.77-1.13-1.49-2.01-.71-.88-1.6.08-2.59.53-.99.44-.58.67-1.99.23-.04-.01-.05-.02-.09-.03a25.39 25.39 0 01-1.99-9.92c0-.86.05-1.71.13-2.54.05-.09.1-.17.16-.24 1.35-1.59 1.32-1.97 1.32-1.97l1.49-.51s2.38.37 4.17 1.05c1.48.56 3.8 1.81 5.15 1.26.98-.4 1.74-.94 1.65-1.75-.11-1.02-.91-1.27-1.89-.58-.36.25-1.12-1.54-1.72-1.45-.6.09.74 2.11.23 2.19-.51.09-1.53-2.11-1.71-2.46-.17-.35-.96-1.23-1.68-.56-1.5 1.43-3.94 1.34-4.44 1.7-1.49 1.11-1.88-.37-1.85-1.27.06-.21.12-.41.19-.62.49-.54 2.24-.71 2.84-.31.66.44 1.13-.11 1.39-.38.26-.26.17-.68 0-1.04-.17-.35.33-.61.67-.7.34-.09 1.48-.88 1.93-1.15.46-.26 2.81-.55 3.87-.02 1.05.53 2.02.1 2.54-.51.65-.77 1.48-1.36 1.85-1.54.37-.17-.91-1.37-1.96-.07-1.06 1.29-1.59 1.41-2.09 1.41-.5 0-3.44-.74-3.8-1.67-.36-.93.92-1.62 2.01-2.15 1.09-.52 4.06-.5 4.82-.68 1.54-.34 3.52-1.11 4.51-.43.99.67-4.15 1.83-2.47 2.75.6.33 3.32-1.56 4.25-2.04 2.19-1.13-2.12-1.51-1.56-3.8.64-2.6-5.29-1.6-8.25-1.38 3.97-2.53 8.67-4 13.73-4 12.02.02 22.08 8.36 24.75 19.56.02.55-.07.95-.13 1.18-.23.92-1.97 1.7-2.98.23-.26-.37-1.35-1.41-1.31.36.03 1.77 1.71 1.95.08 3.01-1.63 1.06-1.93.8-2.68 1.07-.75.26-1.48 2.08-1.3 3.06.18.97 2.5 3.63.78 3.52-.4-.03-3.45-2.11-3.95-3.45-.53-1.41-1.11-2.79-1.51-3.85-.41-1.06-1.49-1.33-2.4-.71-.91.62.25 1.24-.4 2.57-.65 1.32-1.12 2.51-2.07 1.41-2.48-2.85-6.1-1.45-6.66-4.62-.3-1.72-1.78-1.56-3.02-2.53-1.24-.97-1.93-1.5-2.14-.8-.19.61 3.89 3.85 4.18 4.68.43 1.23-1.22 2.31-2.44 2.6-1.21.29-1.74-.68-2.92-1.92-1.18-1.24-1.7-2.12-1.79-1.15-.12 1.4 1.12 3.46 2.33 4.23 1.03.65 2.18.95 1.85 2.01-.34 1.06 0 .46-1.16 1.6-1.16 1.15-1.38 1.52-1.3 3.1.08 1.59-.33 1.68-.58 3-.25 1.32-.82.18-1.32 2.12m27.34-10.12c.86-.07 2.14 1.12 1.64 1.58-.5.45-1.79.28-2.43-.22-.64-.5.41-1.32.79-1.35m-1.08-.78c-.27-.1-.52-.36-.72-.99-.21-.63.32-.98.83-.73.52.27 1.2 1.05 1.2 1.46 0 .42-1.03.37-1.31.26zm-11.24-.06c-.5.45-1.79.28-2.44-.22-.64-.5.41-1.32.79-1.35.86-.08 2.14 1.12 1.64 1.58m-10.41 5.04c-.35.57-1.31 4.86-1.96 4.36-.65-.5.27-4.97.45-5.31 1.01-1.84 3.19-1.75 1.5.95m3.44 16.61c-2.49 0-4.89-.37-7.16-1.04-.33-.27-.51-.71-.31-1.25.79-2.05 3.14-2.86 4.99-3.03 4.13-.4 9.56 2.7 10.42 2.2.87-.5 2.62-2.76 5.18-2.67 1.75.07 1.74.36 2.32.59-4.29 3.26-9.64 5.2-15.45 5.2m17.98-7.39c-.26-.07-.52-.15-.8-.3-1.39-.71-1.22.42-1.91.17-.69-.26.77-1.84-1.28-.5s-1.49-.21-2.38-2.48c-.9-2.27 1.03-4.86 2.64-5.44 2.21-.8 3.59-.96 4.63-1.21 3.06-.76 3.71-2.58 4.26-1.47.1.21.21.4.3.59.18.33.38 1 .39 1.66-1.3 3.4-3.31 6.46-5.85 8.98zm7-12.85c-.68-.19-3.54-4.15-1.27-6.75.38-.43-.76-1.69-.45-1.71 1.24-.09 1.89.67 2.22 1.78a25.481 25.481 0 01-.5 6.68zM55.29 17.57c-.17.25-.34.52-.52.77l6.75-.02v1.24H54.7v-1.13c-.35.51-.7 1.03-1.16 1.41l-1.16-.83c1.22-1.14 1.94-2.66 2.37-4.4l1.51.49c.11.04.21.08.21.24 0 .12-.17.2-.26.22-.1.24-.21.48-.32.71h6.48v1.29h-7.08v.01zm7.17 10.22c-2.02-1.3-2.75-3.65-2.7-6.23h-2.35l1.07.52c.07.03.2.1.2.21 0 .17-.2.25-.31.27-.23.61-.53 1.19-.87 1.72.62.55 1.22 1.11 1.77 1.73l-.99 1.04c-.53-.58-1.04-1.17-1.62-1.69a8.49 8.49 0 01-3.09 2.2l-1.06-1.06c1.06-.38 2.39-1.08 3.16-2.03-.6-.39-1.22-.78-1.85-1.11.29-.4.54-.83.79-1.26.65.35 1.24.8 1.85 1.26.3-.55.52-1.16.69-1.78h-4.19v-1.21c2.8 0 5.6-.03 8.4-.06-.11.59-.16 1.19-.16 1.79 0 2.06.69 3.5 2.27 4.44l-1.03 1.24.02.01zm6.65-10.36v7.94h-1.23v-8.02c-.18.48-.35.96-.55 1.42v9.01h-1.34v-6.62c-.21.38-.47.75-.75 1.06l-.83-1.04c1.35-1.72 2.15-4.13 2.58-6.37l1.5.62c.08.04.17.11.17.24 0 .14-.16.22-.27.2l-.36 1.06 1.15.15c.07.01.13.07.13.15 0 .13-.11.19-.19.21l-.01-.01zm6.13 10.52c-1.19-.54-2.34-1.82-2.96-3.12-.6 1.38-1.7 2.45-2.96 2.95l-.81-.93c1.19-.48 2.38-1.48 2.83-2.9h-2.03v-1.21h2.26c.02-.31.02-.64.02-.94v-.34h-.81c-.19.42-.42.83-.7 1.17l-.94-.62a8.9 8.9 0 001.1-2.74h-.87v-1.16h3.44l.04-1.34-3.03.03v-1.25h4.44c-.02.85-.07 1.69-.1 2.54h1.4v1.18h-4.39l.47.22s.07.06.07.09c0 .13-.13.17-.21.17l-.21.48h3.87v1.23h-2.21c-.01.42-.01.86-.04 1.28h2.83v1.21h-2.57c.43 1.31 1.85 2.34 2.93 2.79l-.89 1.21h.03zm5.92-9.14c-.48.83-1.22 1.95-1.97 2.45l-1.03-.85a6.36 6.36 0 001.93-2.65l1.21.72s.08.07.08.12c0 .11-.15.24-.23.2l.01.01zm6.98 8.96c-1.44-.25-2.87-.82-4.16-1.59-1.51.83-3.1 1.42-4.77 1.62l-.87-1.23c1.53-.06 3.16-.43 4.5-1.3-.4-.34-.78-.73-1.11-1.16-.65.59-1.35 1.06-2.12 1.41l-.87-.97c1.4-.58 2.92-1.88 3.64-3.4l1.21.55s.12.07.12.16c0 .11-.13.14-.21.14l-.18.2h3.73v.82c-.49.79-1.27 1.69-1.95 2.24 1.06.64 2.73.92 3.91 1.09l-.87 1.42zm-2.61-10.25c0 .83.01 1.65.01 2.48 0 1.11-.52 1.63-1.41 1.83l-.98-1.02c.71-.2 1.04-.24 1.04-1.2v-2.1h-.76c-.1 1.59-.45 2.85-1.54 3.89-.32.33-.69.62-1.08.82l-.95-.93c.33-.18.67-.38.95-.62.95-.79 1.21-1.84 1.22-3.16h-3.5v-1.27h4.32v-1.56l1.5.12c.08 0 .19.06.19.17 0 .12-.12.21-.21.24v1.03h4.5v1.27h-3.31l.01.01zm-2.97 5.69c.41.51.86.99 1.36 1.34.42-.34.87-.86 1.16-1.34h-2.52zm5.59-1.65c-.77-.69-1.65-1.92-2.18-2.88l1.18-.86c.51 1.05 1.23 1.93 2.05 2.68l-1.05 1.06zm13.73 2.72c-.12 1.99-.48 2.92-2.28 3.28l-.77-1.21c1.17-.18 1.64-.66 1.71-2.07.08-1.58.09-3.19.09-4.77h-.65c-.17 2.99-.54 6.23-2.74 8.16l-1.09-.86c.28-.21.53-.44.76-.72-1.58.34-3.19.58-4.78.87-.01.1-.07.21-.17.21-.06 0-.11-.07-.13-.12l-.53-1.41c.89-.11 1.8-.18 2.69-.31v-.71h-2.36v-1.05h2.36v-.51H91.9V19h2.09v-.51h-2.47v-1.11h2.47v-.65c-.68.05-1.34.11-2.01.12l-.45-1.16c.38 0 .76-.03 1.14-.06 1.34-.08 2.69-.2 3.96-.76.11.14.95 1.18.95 1.31 0 .12-.09.17-.17.17-.08 0-.16-.04-.23-.08-.63.15-1.25.25-1.89.34v.73h2.2v.9h1.16c.04-1.12.05-2.21.06-3.33l1.41.17c.1.02.27.07.27.23 0 .13-.11.23-.19.28-.04.88-.06 1.76-.12 2.64h1.95c-.02 2.01-.02 4.03-.16 6.03l.01.02zM94 19.92h-.89v.71H94v-.71zm.01 1.61h-.9v.66h.9v-.66zm2.06-1.61h-.82v.71h.82v-.71zm.01 1.61h-.83v.66h.83v-.66zm1.36-2.02v-1.02h-2.18V19h2.03v4.06h-2.03v.51h2.05v1.03h-2.05v.63c.68-.1 1.34-.2 2.01-.31l-.11.84c1.23-1.7 1.37-4.11 1.46-6.26h-1.18v.01zM59.92 42.56c.98 1.17 1.96 1.71 3.28 2.14l-.88 1.24c-1.04-.35-2.74-1.56-3.56-2.41l1.05-.97h-3.88c.13.11 1.07.93 1.07 1.04 0 .13-.18.16-.26.14-.87.86-2.17 1.8-3.27 2.17l-.8-1.07c1.12-.42 2.3-1.2 3.05-2.28h-3.21v-1.27h10.84v1.27h-3.44.01zm-5.69-1.9v-7.17h7.48v7.17h-7.48zm6.15-5.98h-4.85v.89h4.85v-.89zm0 2h-4.85v.85h4.85v-.85zm0 1.97h-4.85v.89h4.85v-.89zm14.82 4.74c-.46-.44-.86-.99-1.23-1.52v1.14h-1.5v2.72h-1.34v-2.72h-1.5v-1.09c-.35.51-.73 1.03-1.17 1.41l-.83-.87v3.19h-1.35v-6.71c-.28.44-.59.93-.95 1.27l-.83-1.03c1.42-1.48 2.44-4.2 2.9-6.33l1.49.7c.06.03.12.1.12.18 0 .14-.18.21-.28.21-.32.92-.66 1.85-1.09 2.71v5.57c1.16-1.1 2.63-3.58 3.01-5.27h-2.36v-1.34h2.75V32.9l1.42.1c.09 0 .19.05.19.17 0 .12-.12.21-.2.24v2.2h3.26v1.34h-2.85c.59 1.91 2.07 4 3.44 5.24l-1.1 1.2zm-5.44-1.62h1.39v-2.78c-.25.93-.87 2-1.39 2.78zm2.69-2.79v2.79h1.45c-.57-.85-1.09-1.8-1.45-2.79zm15.72-.31c-.01.61 0 1.21-.02 1.8-.1 2.63-.2 4.83-2.87 5.34l-.9-1.21c1.23-.14 2.07-.78 2.33-2.23.07-.46.08-.92.1-1.38.01-.32 0-.63 0-.96 0-1.06.01-2.1.01-3.16h-2.27c-.34.72-.69 1.45-1.17 2.04l-.66-.61v6.53h-4.5v-9.18h1.37c.24-.83.46-1.68.64-2.54l1.56.44c.08.03.21.09.21.21 0 .14-.2.22-.28.24-.26.56-.54 1.12-.85 1.65h1.87v1.9c.74-1.25 1.27-3.04 1.46-4.55l1.41.61c.07.03.17.11.17.21 0 .13-.14.17-.23.17-.19.54-.37 1.09-.59 1.59h3.27l-.03 3.07-.03.02zm-6.77-1.86h-1.91v2.55h1.91v-2.55zm0 3.77h-1.91v3.03h1.91v-3.03zm3.89 1.41c-.55-.79-1.15-1.54-1.77-2.24l1.05-1.07c.59.78 1.21 1.55 1.68 2.42l-.95.89h-.01zm11.2-5.39c-.59.17-1.17.31-1.76.42-.63 2.17-1.5 4.73-2.63 6.61-.45-.22-.89-.49-1.33-.76 1.03-1.72 1.87-3.68 2.41-5.68-.59.1-1.19.14-1.79.16-.06-.49-.13-.99-.19-1.5.22.03.44.03.66.03.56 0 1.12-.03 1.68-.11.18-.79.28-1.62.33-2.44.57.08 1.12.16 1.68.28-.14.65-.29 1.31-.48 1.96.5-.11.97-.31 1.45-.48 0 .49-.01 1-.01 1.51h-.02zm3.33 8.35c-.52-.52-1.05-1.06-1.65-1.45.01.16.01.31.01.46 0 1.45-.93 1.85-2.02 1.85-.39 0-.77-.06-1.14-.18-.74-.28-1.5-1.01-1.5-2 0-1.42.99-2.14 2.12-2.14.33 0 .66.03.99.08-.04-.66-.09-1.33-.09-1.99 0-.34.04-.63.15-.96h1.08c.07 0 .42-.05.42.12 0 .03 0 .04-.01.05-.14.26-.21.57-.21.86 0 .75.05 1.48.11 2.23.88.35 1.89 1 2.62 1.68-.28.48-.56.96-.88 1.39zm-3.08-2.03c-.27-.12-.57-.15-.87-.15-.46 0-1.03.14-1.03.8s.7.95 1.17.95c.44 0 .77-.1.77-.7 0-.3-.03-.59-.05-.89l.01-.01zm3.2-4.3c-.84-.77-1.89-1.32-2.93-1.62l.7-1.41c1.04.31 2.16.82 3 1.62l-.77 1.41zm8.27 6.25a23.75 23.75 0 00-1.69-2.46c-.62 1.23-1.59 2.61-2.64 3.33l-1.04-.97a7.556 7.556 0 002.73-3.37c-.59-.86-1.34-1.65-2.09-2.31l.82-1.28c.68.66 1.28 1.42 1.84 2.2.3-.97.45-2 .54-3.03h-3.45v-1.22h2.21v-2.47l1.5.11c.08 0 .19.06.19.17 0 .11-.12.18-.19.21v1.97h1.65v1.22h-.9c.12.06.57.2.57.38 0 .09-.07.13-.13.14-.2 1.23-.49 2.49-.95 3.63.69.83 1.36 1.69 1.94 2.64l-.91 1.1v.01zm1.67-2.69c-.52-.88-1.06-1.72-1.67-2.51l1.13-.97c.53.83 1.04 1.69 1.46 2.6l-.93.89.01-.01zm2.69-4.38v4.88c0 2.28-.25 3.03-2.27 3.48l-.87-1.28c1.64-.24 1.7-.83 1.7-2.61V37.8h-2.27v-1.33h2.24v-3.19l1.47.11c.07 0 .19.07.19.17 0 .11-.12.18-.19.21v2.69h1.46v1.33h-1.47l.01.01zm13.48 8c-1.57-.61-2.82-1.56-3.97-2.96v3.4h-1.38v-3.45c-1.09 1.35-2.5 2.38-4.02 2.92l-.84-1.04c1.83-.66 3.79-2.08 4.86-3.97v-.31h-2.2v2.52h-1.31v-3.59h3.51v-.62h-4.56v-1.16h4.53v-1.03l.77.08-.58-.32c.75-.79 1.32-2.13 1.58-3.26l1.26.27c.12.03.3.06.3.25 0 .13-.16.21-.24.24-.08.23-.18.45-.28.68h3.2v1.05h-1.52c-.16.47-.3.95-.47 1.41l-1.05-.1.11-1.31h-.86c-.24.41-.5.8-.82 1.14.1.03.23.1.23.24 0 .11-.14.21-.22.26v.39h4.49v1.16h-4.5v.62h3.83v2.06c0 1.21-.57 1.57-1.5 1.79l-.78-.9c1.05-.35.89-.76.89-1.87h-2.45v.32c.41.9 1.3 1.82 2.03 2.37.88.68 1.85 1.16 2.86 1.45l-.9 1.28v-.01zm-5.9-10.33c.05.38.11.76.16 1.14-.35.1-.69.21-1.04.31-.17-.48-.3-.97-.46-1.45h-.48c-.44.61-.89 1.3-1.46 1.73l-1.01-.73c1.01-.96 1.67-2.06 2.12-3.48l1.39.34c.08.03.19.08.19.21 0 .15-.16.24-.26.28-.1.21-.21.42-.33.62h2.34v1.03h-1.16zm18.199 4.56a.34.34 0 01-.18-.07c-.87.29-2.54.96-3.34 1.32v2.17h-1.42c.01-.21.01-.42.01-.66V42c-.96.45-1.45 1.03-1.45 1.68 0 .56.55.86 1.65.86 1.2 0 2.28-.16 3.51-.56l-.05 1.65c-1.06.36-2.23.41-3.03.41-2.37 0-3.55-.75-3.55-2.25 0-.73.34-1.41.99-2.03.41-.38 1.03-.79 1.83-1.21-.03-.63-.22-.96-.57-.96-.45 0-.86.17-1.24.54-.24.22-.56.52-.93.96-.45.49-.72.83-.89 1-.22-.25-.55-.63-1-1.15 1.35-1.06 2.37-2.34 3.04-3.82-.64.08-1.35.14-2.12.18-.05-.54-.12-1.03-.19-1.46 1.13 0 2.06-.04 2.76-.14.15-.41.28-1.06.41-1.95l1.63.37c.1.03.14.09.14.17 0 .08-.06.16-.19.21-.06.24-.17.61-.33 1.09.55-.07 1.37-.28 2.25-.52l-.13 1.55c-.67.14-1.56.28-2.67.44-.17.42-.45.94-.75 1.41.29-.08.53-.1.69-.1.73 0 1.22.49 1.43 1.51.96-.51 2.06-1.03 3.26-1.56l.55 1.58c0 .11-.05.17-.14.17l.02-.04zM107.54 27.18c-.44.04-.88.1-1.33.16-.55-1.76-.63-3.67-.63-5.54 0-2.09.27-4.19.63-6.23l1.06.25c.16.04.37.06.52.13.08.03.14.07.14.19s-.11.19-.2.19c-.49 2.04-.71 4.35-.71 6.47 0 .53.02 1.05.02 1.58.22-.66.43-1.34.66-2 .31.28.61.57.91.85-.54 1.31-.93 2.48-1.08 3.96l.01-.01zm7.76-.69c-.67.15-1.55.15-2.23.12-1.74-.05-3.37-.34-3.58-3.01.41-.31.82-.64 1.25-.93 0 1.52.71 2.2 1.85 2.23.9.03 1.89-.03 2.75-.33 0 .64-.02 1.27-.03 1.92h-.01zm-.44-7.88c-.94-.2-1.87-.26-2.83-.18-.66.05-1.31.19-1.95.34-.05-.53-.09-1.18-.15-1.7.91-.25 1.84-.25 2.77-.33.77-.07 1.54 0 2.3.11-.04.58-.08 1.17-.14 1.76z" fill="#fff"/></g><defs><clipPath id="clip0_602_11541"><path fill="#fff" transform="translate(.99)" d="M0 0h164.33v164.33H0z"/></clipPath></defs></svg>