<svg width="165" height="165" viewBox="0 0 165 165" fill="none" xmlns="http://www.w3.org/2000/svg"><g clip-path="url(#clip0_602_11463)"><path d="M164.66 0H.33v164.33h164.33V0z" fill="#F5A200"/><path d="M14.65 20.48c-.28.15-1.11.48-2.48.97-1.08.36-1.77.61-2.05.74v-4.45c.88-.33 1.94-.85 3.19-1.55 1.25-.7 2.13-1.33 2.65-1.9h4.68v31.33h-6V20.48h.01zm13.11 0c-.28.15-1.11.48-2.48.97-1.08.36-1.77.61-2.05.74v-4.45c.88-.33 1.94-.85 3.19-1.55 1.25-.7 2.13-1.33 2.65-1.9h4.68v31.33h-6V20.48h.01zm.59 104.82h24.83c.34 0 .61-.27.61-.61 0-.16-.06-.3-.16-.4l-.03-.04-12.35-15.99-.12-.13a.595.595 0 00-.85-.04l-.07.09-.12.13-12.05 15.82-.19.23c-.07.1-.1.21-.1.34 0 .34.27.61.61.61l-.01-.01zm24.76 2.26H28.23c-.34 0-.61.27-.61.61v19.47c0 .34.27.61.61.61h8.01V136c0-.34.27-.61.61-.61h7.43c.34 0 .61.27.61.61v12.25h8.22c.34 0 .61-.27.61-.61v-19.47c0-.34-.27-.61-.61-.61zm86-5.1h-24.63c-.33 0-.6.26-.6.58v24.87c0 .32.27.59.6.59h24.63c.33 0 .6-.26.6-.59v-24.87c0-.33-.27-.58-.6-.58zm-13.47 16.23c0 .33-.27.59-.6.59h-7.36c-.33 0-.61-.26-.61-.59v-4.47c0-.33.27-.59.61-.59h7.36c.33 0 .6.26.6.59v4.47zm0-8.26a.6.6 0 01-.6.59h-7.36c-.33 0-.61-.26-.61-.59v-4.47c0-.32.27-.58.61-.58h7.36c.33 0 .6.26.6.58v4.47zm11.24 8.26c0 .33-.27.59-.6.59h-7.36c-.33 0-.6-.26-.6-.59v-4.47c0-.33.27-.59.6-.59h7.36c.33 0 .6.26.6.59v4.47zm0-8.26a.6.6 0 01-.6.59h-7.36c-.33 0-.6-.26-.6-.59v-4.47c0-.32.27-.58.6-.58h7.36c.33 0 .6.26.6.58v4.47zM81.86 64.74h-24.1c-.32 0-.59.26-.59.59v82.36c0 .32.27.59.59.59h24.1c.32 0 .59-.26.59-.59V65.33c0-.33-.27-.59-.59-.59zM67.52 138.9c0 .17-.14.32-.32.32h-5.52c-.17 0-.32-.14-.32-.32v-6.15c0-.17.14-.31.32-.31h5.52c.17 0 .32.14.32.31v6.15zm0-14.12c0 .18-.14.32-.32.32h-5.52c-.17 0-.32-.14-.32-.32v-6.15c0-.18.14-.32.32-.32h5.52c.17 0 .32.14.32.32v6.15zm0-14.12c0 .17-.14.32-.32.32h-5.52c-.17 0-.32-.14-.32-.32v-6.15c0-.17.14-.32.32-.32h5.52c.17 0 .32.14.32.32v6.15zm0-14.12c0 .17-.14.32-.32.32h-5.52c-.17 0-.32-.14-.32-.32v-6.15c0-.17.14-.31.32-.31h5.52c.17 0 .32.14.32.31v6.15zm0-14.12c0 .17-.14.31-.32.31h-5.52a.32.32 0 01-.32-.31v-6.15c0-.18.14-.32.32-.32h5.52c.17 0 .32.14.32.32v6.15zm10.82 56.49c0 .17-.14.32-.32.32H72.5c-.18 0-.32-.14-.32-.32v-6.15c0-.17.14-.31.32-.31h5.52c.18 0 .32.14.32.31v6.15zm0-14.12c0 .18-.14.32-.32.32H72.5c-.18 0-.32-.14-.32-.32v-6.15c0-.18.14-.32.32-.32h5.52c.18 0 .32.14.32.32v6.15zm0-14.12c0 .17-.14.32-.32.32H72.5c-.18 0-.32-.14-.32-.32v-6.15c0-.17.14-.32.32-.32h5.52c.18 0 .32.14.32.32v6.15zm0-14.12c0 .17-.14.32-.32.32H72.5c-.18 0-.32-.14-.32-.32V90.4c0-.17.14-.31.32-.31h5.52c.18 0 .32.14.32.31v6.15zm0-14.12c0 .17-.14.31-.32.31H72.5c-.18 0-.32-.14-.32-.31v-6.15c0-.18.14-.32.32-.32h5.52c.18 0 .32.14.32.32v6.15zm36.06 32.08h24.79c.27 0 .49.22.49.49v4.96c0 .27-.22.49-.49.49H114.4a.49.49 0 01-.49-.49V115c0-.27.22-.5.5-.5l-.01.01zm-3.43-34.22a.636.636 0 00-.61-.46c-.13 0-.24.05-.34.11-.02 0-.03.02-.05.03l-.2.26-23.69 30.05-.11.15c-.12.12-.2.28-.21.47v36.92c0 .32.26.59.59.59h24.08c.33 0 .59-.26.59-.59V80.54c0-.09-.02-.17-.06-.25h.01zM101 96.61l.17-.21c1.62-2.08 4.35-5.44 5.68-7.07l.17-.21c.13-.15.32-.25.53-.25.33 0 .59.24.66.55v7.6c0 .37-.29.66-.65.68h-6.04a.682.682 0 01-.65-.68c0-.15.05-.29.13-.41zm-3.75 42.08c0 .33-.26.59-.59.59h-7.18c-.33 0-.59-.26-.59-.59v-4.5c0-.32.26-.59.59-.59h7.18c.33 0 .59.26.59.59v4.5zm0-8.31c0 .33-.26.59-.59.59h-7.18c-.33 0-.59-.26-.59-.59v-4.5c0-.33.26-.59.59-.59h7.18c.33 0 .59.26.59.59v4.5zm0-8.31c0 .32-.26.59-.59.59h-7.18c-.33 0-.59-.26-.59-.59v-4.5c0-.33.26-.59.59-.59h7.18c.33 0 .59.26.59.59v4.5zm.02-18.21v9.9c0 .33-.27.59-.59.59H89.5c-.33 0-.59-.26-.59-.59v-1.25c0-.08.02-.15.05-.22.01-.02.01-.03.04-.07.01-.03.03-.05.05-.08.02-.03.05-.06.07-.1.92-1.31 5.06-6.42 6.8-8.55l.17-.21c.13-.15.32-.25.53-.25.33 0 .59.24.66.55v.27l-.01.01zm10.96 34.82c0 .33-.27.59-.59.59h-7.18c-.33 0-.59-.26-.59-.59v-4.5c0-.32.26-.59.59-.59h7.18c.32 0 .59.26.59.59v4.5zm0-8.31c0 .33-.27.59-.59.59h-7.18c-.33 0-.59-.26-.59-.59v-4.5c0-.33.26-.59.59-.59h7.18c.32 0 .59.26.59.59v4.5zm0-8.31c0 .32-.27.59-.59.59h-7.18c-.33 0-.59-.26-.59-.59v-4.5c0-.33.26-.59.59-.59h7.18c.32 0 .59.26.59.59v4.5zm0-8.31c0 .32-.27.59-.59.59h-7.18c-.33 0-.59-.26-.59-.59v-4.5c0-.33.26-.59.59-.59h7.18c.32 0 .59.26.59.59v4.5zm0-8.31c0 .33-.27.59-.59.59h-7.18c-.33 0-.59-.26-.59-.59v-4.5c0-.33.26-.59.59-.59h7.18c.32 0 .59.26.59.59v4.5zM51.06 15.26c-.32.9-.69 1.76-1.08 2.62v8.96h-1.36v-6.65c-.23.46-.58.9-.9 1.28l-.89-1.04c1.36-1.55 2.41-4.12 2.87-6.26l1.56.68c.06.03.12.09.12.17 0 .16-.22.23-.31.24h-.01zm-.37 11.22v-1.21h3.01v-2.99h-2.42v-1.22h2.42v-2.57h-2.79v-1.31h7.04v1.31H55.1v2.57h2.47v1.22H55.1v2.99h3.15v1.21h-7.57.01zm3.86-9.37c-.69-.68-1.43-1.28-2.23-1.79l.96-1.18c.4.3.79.65 1.16.99.34.29.68.59.98.93l-.87 1.06v-.01zm15.5 7.13c-.53-.41-1.07-.83-1.64-1.17-.47 1.25-1.42 2.82-2.49 3.44l-1.25-.8c1.14-.65 1.99-1.9 2.46-3.27-.72-.37-1.48-.66-2.26-.82-.17.48-.36.96-.58 1.41-.52 1.13-1.17 2.27-2.4 2.27-1.01 0-1.73-.95-1.73-2.12 0-1.49 1.06-2.55 2.23-2.86.48-.13.99-.14 1.47-.13.34-.85.71-2.41.88-3.34l-2.57.44-.28-1.62h.13c.84 0 3.36-.2 4.07-.51.18.22.39.44.59.65-.25.86-.53 1.71-.79 2.56-.21.65-.4 1.3-.63 1.93.77.14 1.53.37 2.25.7.25-.9.36-1.87.4-2.82.48.32.96.63 1.42.98-.1.83-.22 1.66-.45 2.45.62.31 1.24.62 1.83 1.03-.21.52-.44 1.06-.69 1.58l.03.02zm-8.51-1.13c0 .35.13.66.46.66.22 0 .36-.08.51-.25.38-.42.78-1.49.97-2.07-.85.07-1.94.48-1.94 1.66zm13.01-.23c-.19 1.11-.38 2.28-.82 3.29l-1.04-.56c.41-1 .65-2.47.77-3.57l1.16.49s.08.08.08.14c0 .11-.08.18-.16.21h.01zm7.64-.6v-1.36h-3.86v1.4h-1.17v-.99l-.85.38c-.04-.15-.09-.32-.12-.47l-.22.04v5.57h-1.21v-5.43c-.57.04-1.16.11-1.73.18l-.15-1.19c.19 0 .4-.03.58-.07.15-.04.21-.1.31-.24.31-.42.58-.88.87-1.32-.51-.24-1.01-.5-1.55-.67v-.62c.77-.97 1.48-2.18 1.98-3.37l1.26.69c.09.06.26.12.26.28 0 .24-.22.24-.36.22-.55.71-1.08 1.43-1.68 2.1.22.14.45.25.68.4.22-.36.43-.74.64-1.11l1.1.78c.06.04.12.1.12.2 0 .19-.19.18-.3.18-.63.83-1.23 1.7-1.89 2.48.34-.01.69-.03 1.03-.08-.08-.24-.13-.49-.23-.71l.94-.38c.21.65.37 1.32.55 1.99v-1.35h6.33v2.47h-1.33zm-5.56 2.61c-.17-.76-.33-1.54-.45-2.32l.9-.39c.14.78.29 1.57.48 2.33l-.92.38h-.01zM79.97 22c-.06.78-.13 1.57-.37 2.3-.38 1.15-1.08 2.17-2.02 2.73l-1.05-.86c1.8-1.12 2.09-2.49 2.16-4.76l1.26.23c.07.01.16.06.16.17 0 .09-.08.15-.14.18V22zm.82-4.98v1h2.14v1.12h-5.47v-1.12h2V17h-2.54v-1.21h2.53v-1.61l1.35.11c.08 0 .19.06.19.17 0 .11-.11.2-.19.22v1.11h2.63v1.22h-2.64v.01zm3.05 9.36c-.59.35-1.39.52-2.05.52-.86 0-1.42-.49-1.42-1.57v-3.9l1.24.14c.07.01.19.04.19.15 0 .1-.09.17-.16.2v2.86c0 .68.08.86.67.86.5 0 1.22-.43 1.63-.76l-.09 1.51-.01-.01zm4.83-.76c-.4.06-.81.11-1.21.15-.63-1.59-.86-3.46-.84-5.2.02-1.8.25-3.59.61-5.33.36.09.73.19 1.09.29.16.04.32.07.47.14.07.03.15.06.15.15 0 .11-.11.19-.21.21-.51 1.84-.67 3.72-.7 5.65 0 .56-.01 1.2.12 1.76.24-.68.48-1.38.72-2.05.27.38.56.76.87 1.1-.46.98-.87 2.05-1.06 3.13h-.01zm5.95-5.92c0 .61 0 1.23-.02 1.84-.03.77-.07 1.53-.26 2.28-.27 1.18-.86 2.27-1.77 2.95-.44-.26-.86-.54-1.31-.74 1.49-1.2 1.83-2.64 1.9-4.59.02-.56.02-1.12.02-1.68-.73.06-1.45.08-2.17.06-.23 0-.46-.03-.69-.04-.05-.5-.08-.99-.12-1.48a16.14 16.14 0 002.93.14c0-.78-.06-1.54-.09-2.31-.02-.41-.05-.84-.11-1.26.39.07.77.11 1.15.17.16.02.33.03.48.09.08.02.17.06.16.17 0 .09-.09.18-.16.2 0 .93.05 1.86.05 2.79.73-.04 1.46-.28 2.15-.51.02.52-.03 1.05-.01 1.57-.68.19-1.42.3-2.13.37v-.02zm8.25 6.9c-.24.07-.48.12-.74.18-.12-.21-.75-1.21-.75-1.21 0-.04.05-.05.07-.05.62-.11 1.2-.25 1.79-.52.87-.38 1.77-1.06 1.79-2.28.01-1.08-.57-1.68-1.49-1.7-1.41-.02-2.69 1.5-3.16 2.96-.4-.07-.81-.16-1.2-.22-.09-.72-.13-1.43-.12-2.14.02-1.54.22-3.08.49-4.57l1.4.43c.07.01.14.07.14.17 0 .11-.11.2-.18.22-.26 1.12-.44 2.28-.47 3.42.97-1.1 2.14-1.69 3.51-1.68 1.44.02 2.7 1.16 2.68 2.92-.03 2.57-1.89 3.54-3.76 4.07zm.69-9.08c-.75-.91-1.6-1.68-2.53-2.31.32-.36.61-.74.93-1.1.94.45 2.01 1.42 2.7 2.27-.38.38-.73.77-1.1 1.14zm13.911 7.98c-1.08 0-1.57-.82-1.57-2.02 0-1.2.19-2.49.28-3.75.01-.18.01-.38.01-.56 0-.27-.04-.52-.33-.52-.7 0-2.37 1.62-2.77 2.3 0 1.79.02 3.62.1 5.41l-1.48.17c0-1.48.01-2.99.01-4.48-.53.9-1.1 1.76-1.64 2.63-.38-.39-.7-.85-1.06-1.27 1-1.23 1.88-2.59 2.63-4.06v-.68c-.68.13-1.33.31-2.01.42-.08-.48-.15-.96-.26-1.42.75-.09 1.51-.14 2.23-.37 0-.97-.04-1.95-.08-2.9.33.01 1.26.07 1.54.17.08.03.16.07.16.2 0 .07-.04.14-.1.15-.04.69-.07 1.37-.08 2.04.21-.06.42-.16.64-.23.09.37.16.73.24 1.08-.22.27-.41.56-.61.86l.02.04c.92-.86 1.86-1.66 3.09-1.66.81 0 1.26.76 1.26 1.65 0 .71-.06 1.41-.14 2.13-.09.75-.2 1.49-.21 2.26v.04c-.01.31.03.76.37.76.75 0 1.24-1.21 1.54-1.89.18.65.36 1.29.53 1.95-.54.94-1.32 1.54-2.31 1.54v.01zm9.099 1.26c-1 0-2.62-.43-2.62-1.96 0-1.08.96-1.59 1.74-1.59.71 0 1.41.5 1.66 1.31.07.26.11.53.12.8.84-.26 1.55-1.05 1.55-2.16 0-1.51-.95-2.24-2.11-2.24-1.82 0-2.87 1.74-4.01 3.19-.37-.4-.74-.79-1.12-1.18 1.74-1.81 3.28-3.89 4.57-6.17-.96.23-1.93.42-2.89.63l-.27-1.72c.13.02.25.02.38.02.54 0 1.07-.07 1.6-.15.73-.1 1.48-.22 2.21-.41.25-.06.5-.16.76-.25.28.39.56.77.83 1.17-.12.1-.25.21-.36.32-.28.29-.54.66-.78.98-.58.79-1.12 1.61-1.68 2.41.36-.1.74-.13 1.11-.13 1.68 0 3.21 1.05 3.21 3.28 0 2.72-1.92 3.85-3.91 3.85h.01zm-1.03-2.38c-.23 0-.37.1-.37.39 0 .54.69.61 1 .61-.06-.42-.18-1.01-.63-1.01v.01zm-69 19.24c-.87-.62-1.76-1.23-2.73-1.63-.01.76-.08 1.41-.68 1.86-.43.32-1.14.55-1.65.54-1.2-.02-3.01-.43-2.98-2.21.02-1.23 1.05-1.93 1.99-2.05.31-.05.64-.03.96-.03.29 0 .57.04.84.08 0-.45-.02-.9-.04-1.34-.4.02-.81.03-1.22.02-.93-.01-2.23-.1-2.21-1.55 0-.43.14-.82.31-1.17l1.29-.06c-.1.26-.28.67-.28.97 0 .45.5.46.76.46.44 0 .88.03 1.3-.04-.04-.68-.04-1.37-.04-2.04-1.36 0-2.72.13-4.07.32-.08-.5-.13-.99-.18-1.48 1.41-.09 2.82-.17 4.24-.2v-1.94c.35.05.68.08 1.02.13.17.03.36.04.53.08.06.02.13.04.13.14 0 .11-.09.18-.16.21-.03.44-.04.86-.05 1.3 1.08-.04 2.15-.07 3.22-.08v1.44c-1.08-.02-2.15-.03-3.22 0-.01.69 0 1.37.02 2.06 1.04-.1 2.07-.27 3.08-.6l-.08 1.61c-.99.15-1.97.28-2.96.35 0 .58.02 1.17.05 1.75 1.24.41 2.5.95 3.62 1.73-.27.46-.55.92-.83 1.37h.02zm-4.21-2.05c-.35-.16-.71-.22-1.07-.23-.43 0-1.27.16-1.28.83 0 .66.78.86 1.22.87.68 0 1.13-.31 1.14-1.15v-.31l-.01-.01zm14.96 1.55c-.99.83-2.25 1.18-3.44 1.35-.26-.45-.46-.93-.74-1.37 1.35-.12 3.81-.56 3.81-2.65 0-1.04-.8-1.45-1.58-1.45-.71 0-1.55.38-2.12.86-.53.44-.95 1.14-1.26 1.8l-1.34-.72c.88-1.23 1.42-3.27 1.62-4.84-.47.03-.93.04-1.4.04h-.98c-.04-.52-.1-1.03-.11-1.55.58.07 1.17.11 1.76.11.29 0 .58 0 .87-.02.1-.88.13-1.78.13-2.68l1.08.15c.16.03.33.03.48.08.08.03.18.07.18.2s-.12.24-.22.28c-.05.62-.08 1.24-.17 1.85 1.24-.1 2.47-.38 3.68-.73l-.02 1.65c-1.29.24-2.58.44-3.88.52-.15.83-.3 1.69-.57 2.48.82-.55 1.69-.76 2.63-.76 1.51 0 2.69.99 2.69 2.84 0 .99-.43 1.95-1.12 2.53l.02.03zm12.29-1.1c-1.21 1.2-3.08 1.7-4.62 1.95-.36-.46-.7-.95-1.08-1.37.93-.12 1.88-.32 2.78-.65 1.34-.49 2.63-1.38 2.63-3.3s-.96-2.48-2.37-2.48c-1.49 0-2.78.79-4.15 1.38-.5.22-1.02.41-1.55.55-.06-.2-.59-1.8-.59-1.84 0-.14.15-.1.22-.1.98 0 2.01-.42 2.96-.75 1.16-.39 2.31-.76 3.53-.76 1.93 0 3.52 1.41 3.52 3.86 0 1.41-.36 2.61-1.29 3.51h.01zm-1.47-7.77c-.36-.61-.78-1.19-1.21-1.72l.91-.54c.43.54.84 1.09 1.17 1.7l-.87.55v.01zm1.65-.45c-.37-.65-.77-1.28-1.24-1.83l.93-.52c.43.56.84 1.14 1.16 1.79l-.85.56zm9.69 10.48c-1.03-1.51-2.23-2.81-3.53-3.99-.33-.32-.67-.63-1.02-.89-.21-.16-.42-.3-.59-.52-.16-.22-.22-.47-.22-.74 0-.53.22-.83.54-1.17.56-.61 1.15-1.17 1.7-1.78.82-.93 1.66-1.87 2.46-2.85.34.29.68.56 1.02.85.13.1.28.21.39.33.03.04.06.07.06.12 0 .19-.26.22-.39.19-.77.74-1.57 1.47-2.36 2.22-.33.31-.63.66-.96.97-.15.15-.33.29-.47.45-.13.13-.28.34-.28.55 0 .19.09.3.21.41.49.47 1.04.87 1.55 1.3 1.13 1 2.18 2.13 3.12 3.36-.41.38-.81.79-1.22 1.18l-.01.01zm6.61-3.61c-.41-.03-.83-.07-1.23-.12-.33-.88-.51-2.24-.48-3.2.05-1.52.31-3.04.49-4.54.36.05.74.13 1.1.18.13.03.3.04.43.09.06.03.1.06.1.15 0 .1-.09.17-.15.21-.33 1.31-.55 2.66-.6 4.03v.85c0 .03-.01.1.03.1s.06-.11.08-.12c.17-.45.35-.88.53-1.31l.68 1.01c-.41.85-.77 1.72-.99 2.67h.01zm4.77-7.27c-.01 1.65-.02 3.34-.08 5.01-.09 2.65-.66 5.12-2.81 6.34-.35-.31-.87-.55-1.26-.77-.03-.01-.07-.02-.07-.07 0-.06.06-.1.1-.12.29-.16.56-.32.82-.54 1.38-1.15 1.7-3.06 1.77-4.95.06-1.86 0-3.76-.13-5.61.36.01.75.1 1.1.15.19.04.41.04.59.1.07.02.12.06.11.16 0 .11-.08.21-.14.29v.01zm12.37 5.11c-.06 0-.11-.03-.17-.07-.82.3-2.39.96-3.14 1.33v2.17h-1.34c.01-.21.01-.42.01-.66v-.79c-.91.45-1.36 1.03-1.36 1.68 0 .57.52.86 1.55.86 1.12 0 2.14-.15 3.3-.56l-.05 1.65c-1 .35-2.1.41-2.84.41-2.22 0-3.33-.75-3.33-2.26 0-.73.32-1.41.93-2.03.38-.38.96-.79 1.72-1.21-.02-.63-.2-.96-.53-.96-.42 0-.81.17-1.17.54-.23.22-.52.52-.87.96-.42.49-.68.83-.84 1-.2-.25-.52-.63-.94-1.16 1.27-1.06 2.22-2.35 2.86-3.83-.6.08-1.27.14-2 .18a17.4 17.4 0 00-.18-1.47c1.06 0 1.94-.04 2.6-.14.14-.41.26-1.06.38-1.95l1.53.37c.09.03.14.09.14.17 0 .08-.06.16-.18.21-.06.24-.16.61-.3 1.09.52-.07 1.29-.28 2.12-.52l-.12 1.56c-.62.14-1.46.28-2.5.43-.16.43-.42.95-.7 1.42.27-.09.5-.1.65-.1.69 0 1.14.49 1.35 1.51.91-.51 1.94-1.03 3.06-1.57l.52 1.58c0 .12-.04.17-.14.17l-.02-.01z" fill="#fff"/></g><defs><clipPath id="clip0_602_11463"><path fill="#fff" transform="translate(.33)" d="M0 0h164.33v164.33H0z"/></clipPath></defs></svg>