<svg width="165" height="165" viewBox="0 0 165 165" fill="none" xmlns="http://www.w3.org/2000/svg"><g clip-path="url(#clip0_602_11895)"><path d="M164.66 0H.33v164.33h164.33V0z" fill="#E83819"/><path d="M16.79 44.99c-1.19-.76-2-1.84-2.44-3.23-.44-1.39-.66-3.13-.66-5.22h5.8c0 1.81.17 3.11.5 3.93.33.81.99 1.22 1.97 1.22.77 0 1.34-.26 1.7-.77.36-.52.59-1.22.68-2.11.09-.89.14-2.17.14-3.85 0-1.91-.17-3.33-.52-4.27-.35-.94-1.06-1.41-2.15-1.41-1.39 0-2.28.94-2.67 2.82h-5.15l.43-17.79h14.43v5.15h-9.52l-.35 6.92c.36-.44.98-.81 1.86-1.1.88-.3 1.82-.44 2.82-.44 2.14 0 3.75.86 4.84 2.59 1.08 1.73 1.62 4.15 1.62 7.27 0 2.48-.22 4.53-.66 6.17-.44 1.64-1.27 2.93-2.5 3.87s-2.97 1.41-5.24 1.41c-2.11 0-3.77-.38-4.95-1.14l.02-.02zm103.41 17.1H99.68c-.14 0-.26.12-.26.26v6.82c0 .15.12.26.26.26h8.17l-9.07 9.07c-4.57-3.59-10.32-5.74-16.57-5.74-14.82 0-26.87 12.05-26.87 26.87 0 13.64 10.22 24.93 23.4 26.64v7.86h-8.09c-.15 0-.26.12-.26.26v7.31c0 .15.11.26.26.26h8.09v7.73c0 .14.12.26.26.26h7.3c.15 0 .26-.12.26-.26v-7.73h8.09c.14 0 .26-.12.26-.26v-7.31c0-.14-.12-.26-.26-.26h-8.09v-7.98c12.75-2.09 22.51-13.18 22.51-26.51 0-5.75-1.82-11.08-4.91-15.46l8.94-8.94v7.63c0 .14.12.26.26.26h6.82c.15 0 .27-.12.27-.26V62.35a.26.26 0 00-.27-.26m-37.99 57.33c-10.91 0-19.78-8.87-19.78-19.78 0-10.91 8.87-19.78 19.78-19.78 10.91 0 19.78 8.87 19.78 19.78 0 10.91-8.87 19.78-19.78 19.78z" fill="#fff"/><path d="M94.29 91.52H70.3c-.14 0-.26.11-.26.23v5.81c0 .14.12.24.26.24h23.99c.15 0 .27-.1.27-.24v-5.81c0-.13-.12-.23-.27-.23zm0 10.37H70.3c-.14 0-.26.11-.26.24v5.81c0 .13.12.23.26.23h23.99c.15 0 .27-.1.27-.23v-5.81c0-.13-.12-.24-.27-.24zM46.64 21.41c-.86-.83-1.81-1.49-2.81-2.1.3-.46.58-.96.88-1.44 1 .52 2 1.22 2.85 2.04l-.92 1.49v.01zm-1.83 5.2c-.1-.17-.84-1.63-.84-1.72 0-.09.11-.11.17-.12.76-.18 1.52-.37 2.27-.69 2.39-1.03 4.66-2.87 6.5-4.98.05.75.12 1.51.22 2.27-2.38 2.66-5.2 4.38-8.31 5.24h-.01zm3.52-8.39c-.82-.71-1.69-1.27-2.63-1.72.29-.48.55-.97.82-1.46.95.39 1.89 1 2.71 1.7-.29.51-.58 1-.91 1.48h.01zm3.65-.76c-.29-.66-.64-1.3-1.01-1.9l.9-.48c.35.58.65 1.2.93 1.82l-.82.56zm1.53-.61c-.33-.65-.65-1.32-1.03-1.95l.87-.52c.36.59.68 1.22.95 1.89l-.79.58zm3.1 9.25v-1.32h3.22v-4.21H57.2v-1.38H64v1.38h-2.71v4.21h3.31v1.32h-7.99zm14.44-.75c-.69.33-1.38.59-2.12.76-.07-.17-.83-1.76-.83-1.76 0-.06.06-.06.1-.06.17 0 .35-.03.52-.07 1.34-.28 2.64-.92 3.85-1.66 1.63-1 3.15-2.27 4.5-3.74.1.69.22 1.38.33 2.07-1.87 1.96-4.01 3.37-6.33 4.45l-.02.01zm-.28-5.69c-.72-.97-1.51-1.86-2.41-2.62.47-.39.92-.82 1.37-1.22.87.73 1.64 1.6 2.33 2.58-.39.48-.83.87-1.29 1.27v-.01zm17.08-1.71c-.05.17-.09.35-.14.52-.11.45-.25.9-.41 1.33-.29.85-.65 1.68-1.06 2.45.54.42 1.08.88 1.59 1.36-.31.42-.65.83-1 1.22-.45-.45-.93-.89-1.4-1.31-1.1 1.44-2.82 2.79-4.42 3.34-.34-.39-.7-.78-1.08-1.14a.114.114 0 01-.03-.07c0-.06.05-.06.07-.07.24-.06.47-.14.7-.24 1.24-.57 2.68-1.57 3.51-2.81-.48-.39-1-.73-1.5-1.08.3-.4.57-.8.87-1.2.48.34.96.69 1.42 1.06.51-.86.81-1.85 1.04-2.85-.82 0-1.63.01-2.45.04-.7 1.18-1.56 2.52-2.55 3.4-.4-.31-.81-.62-1.23-.9 1.64-1.52 2.81-3.71 3.32-6.07l1.63.69s.1.07.1.16c0 .12-.13.17-.22.17-.16.37-.3.73-.46 1.08 1.13-.03 2.26-.03 3.39-.17.17.21.33.42.52.62-.07.15-.15.32-.21.48v-.01zm-.49-1.38c-.3-.62-.64-1.22-.99-1.82l.9-.5c.34.56.63 1.19.9 1.81l-.82.51h.01zm1.64-.41c-.3-.65-.62-1.3-.99-1.89l.87-.52c.37.58.67 1.21.94 1.86l-.82.55zm11.85 5.46c-.69-.04-1.28-.06-1.83-.06-.64-.01-6.31 0-7.84.06-.02-.56-.05-1.28-.06-1.7-.01-.21.08-.11.16-.11.2.03.59.04.7.05.73.02 2.62-.03 3.46-.03 1.75 0 3.48-.04 5.43-.07-.04.56 0 1.29-.01 1.86h-.01zm9.2.93v4.62h-1.46v-4.62h-4.58v-1.38h4.58v-4.68h-3.94v-1.35h9.36v1.35h-3.97v4.68h4.58v1.38h-4.57zm-3.45-1.92c-.42-1-.85-2.02-1.36-2.96l1.29-.7c.41.87.92 2.09 1.13 3.04l-1.06.62zm6.73-2.58c-.42.89-.84 1.78-1.33 2.64l-1.07-.51c.4-1.06.76-2.14 1.07-3.24l1.45.66c.08.04.17.13.17.24 0 .15-.2.21-.29.21zm7.01-1.28l.13.97-.99.27-.39-1.27h-.34c-.4.58-.78 1.23-1.29 1.69l-1.05-.69c.85-.95 1.48-2.19 1.79-3.51l1.39.45c.07.03.16.09.16.18 0 .13-.13.21-.23.22-.07.17-.15.35-.26.51h2.34v1.17h-1.27l.01.01zm4.09 4.98v.85h2.36v1.26h-2.36c0 2.16.22 3.37-1.98 3.75l-.82-1.2c.83-.16 1.44-.23 1.44-1.39v-1.16h-3.52c.36.34.7.69 1.03 1.06.25.27.52.51.76.8l-.9 1.02c-.67-.68-1.31-1.38-2.04-1.97l.81-.9h-2.24v-1.26h6.11v-.86h-6.47v-1.18h4.44v-.85h-3.2v-1.2h3.16v-.96l1.46.2c.06.01.06-.06.06.01 0 .1-.05.28-.12.31v.44h3.51v1.2h-3.53v.85h4.68v1.2h-2.63l-.01-.02zm.89-4.92l-.38 1.21-1.05-.11.05-1.14h-.79c-.21.33-.5 1-.75 1.28l-1.4-.52c.6-.73 1.42-2.27 1.65-3.24l1.42.42c.06.01.15.07.15.15 0 .13-.16.16-.24.16-.09.21-.18.41-.28.61h3.2v1.19h-1.58v-.01zm13.03 4.32c-.06 0-.12-.03-.17-.07-.83.29-2.43.96-3.19 1.32v2.17h-1.36c.01-.21.01-.42.01-.66v-.79c-.92.45-1.38 1.03-1.38 1.68 0 .56.53.86 1.57.86 1.14 0 2.18-.15 3.35-.56l-.05 1.65c-1.01.35-2.13.41-2.89.41-2.26 0-3.39-.75-3.39-2.25 0-.73.32-1.41.95-2.03.39-.38.98-.79 1.75-1.21-.02-.63-.21-.96-.54-.96-.43 0-.82.17-1.19.54-.23.23-.53.52-.89.96-.43.49-.69.83-.85 1-.21-.25-.53-.63-.96-1.15 1.29-1.06 2.25-2.34 2.9-3.82-.61.09-1.29.14-2.03.19-.04-.54-.11-1.03-.18-1.47 1.08 0 1.97-.04 2.64-.14.14-.41.27-1.06.39-1.94l1.56.37c.09.03.14.08.14.17 0 .09-.06.16-.19.21-.06.24-.16.61-.31 1.09.53-.07 1.31-.28 2.15-.52l-.13 1.55c-.63.14-1.49.28-2.54.44-.16.42-.42.94-.71 1.41.28-.08.51-.1.66-.1.7 0 1.16.49 1.37 1.51.92-.51 1.97-1.03 3.11-1.56l.53 1.58c0 .11-.04.17-.14.17l.01-.05zM53.87 44.8c-.88-.15-2.07-.75-2.84-1.25a6.157 6.157 0 01-1.96-2.09c-1.04 1.83-2.81 2.79-4.59 3.26l-.82-1.24c1.55-.33 3.18-.89 4.14-2.5h-4.08v-1.25h4.53c.01-.27.03-.54.03-.8h-3.44v-1.21h3.47v-.88h-2.73v-1.21h2.73v-.9l1.41.1c.07 0 .14.04.14.14s-.08.17-.16.2v.47h2.81v1.21h-2.84v.88h3.63v1.21h-3.65c-.01.27-.01.54-.01.8h4.74v1.25h-4.12c.89 1.46 2.95 2.2 4.4 2.44l-.81 1.38.02-.01zm-1.08-8.54V34.5h-7.44v1.76h-1.33v-3h4.28v-1.52l1.5.1c.08 0 .19.04.19.17 0 .11-.12.21-.21.24v1.02h4.39v3h-1.39l.01-.01zm7.95 4.58c-1.12.55-2.27 1.02-3.4 1.54-.02.09-.08.21-.17.21-.05 0-.11-.04-.16-.14l-.53-1.41c.59-.2 1.18-.39 1.77-.61v-3.01h-1.39v-1.23h1.39v-2.44h-1.5v-1.21h3.99v1.21h-1.12v2.44h1v1.23h-1.04v2.63c.39-.17.79-.35 1.17-.52l-.02 1.31h.01zm7.23 3.54c-.6.3-1.4.38-2.05.38-.93 0-1.89-.18-1.89-1.54v-2.9h-1.09c.11.09.69.51.69.65 0 .08-.11.14-.17.15-.23.48-.47.96-.76 1.4-.77 1.13-1.8 2.02-2.96 2.54l-1.04-.99c1.68-.69 2.81-1.79 3.49-3.75h-1.07V32.4h5.93v7.92h-1.69v2.44c0 .46.13.77.57.77.72 0 1.59-.39 2.16-.91l-.12 1.76zm-2.3-10.74h-3.22v1.1h3.22v-1.1zm-3.22 2.23v1.07h3.22v-1.07h-3.22zm3.23 2.2h-3.23v1.16h3.23v-1.16zm11.25 5.27c-.95.66-2.09.96-3.2.96-1.71 0-2.79-1.14-2.88-3.14-.03-.27-.01-.54-.01-.8 0-.76.01-1.52.04-2.3.03-1.81.06-3.65.08-5.47.37.05.76.13 1.13.21.15.03.33.04.47.1.1.04.22.1.22.22 0 .11-.09.2-.18.24-.14 2.46-.25 4.93-.25 7.39 0 1.25.48 2.02 1.61 2.02.52 0 1.05-.16 1.53-.41 1.11-.55 1.88-1.73 2.42-2.94l.88 1.83c-.44.77-1.17 1.62-1.86 2.1v-.01zm12.91.59a13.82 13.82 0 00-2.74-2c-.13 1.8-1.2 2.36-2.6 2.36-1.2 0-3.03-.7-3.03-2.4s1.41-2.28 2.64-2.28c.51 0 1.01.05 1.51.18 0-1.97-.08-3.96-.24-5.92-.05-.48-.07-.96-.16-1.42l1.61.24c.07.01.21.08.21.2 0 .08-.07.15-.13.2v.54c0 .62-.01 1.24.01 1.86h.14c.55 0 1.11-.01 1.66-.08.43-.06.86-.16 1.28-.22 0 .55-.02 1.1-.04 1.66-.67.06-1.36.1-2.04.1-.31 0-.63-.01-.95-.03.03 1.13.05 2.26.08 3.4 1.33.55 2.57 1.3 3.78 2.14l-.99 1.49v-.02zm-4.21-2.67c-.48-.24-1.07-.36-1.59-.36-.42 0-1.07.31-1.07.89 0 .88.84 1.1 1.44 1.1.72 0 1.23-.31 1.23-1.23v-.4h-.01zm11.35 3.23c-.45-.41-.89-.83-1.36-1.2 1.2-.37 2.81-1.15 3.47-2.45.32-.62.47-1.35.47-2.07 0-1.25-.41-1.97-1.53-1.97-.79 0-2.7 1.03-3.42 1.51-.08-.21-.66-1.66-.66-1.79 0-.1.12-.08.17-.08.26 0 1.21-.3 1.5-.41.94-.34 1.81-.72 2.81-.72 1.93 0 2.78 1.52 2.78 3.62 0 2.89-2.06 4.75-4.22 5.57l-.01-.01zm2.11-10.16c-1.11-.52-2.23-.99-3.41-1.27.23-.51.45-1.01.68-1.52 1.21.24 2.37.71 3.5 1.28-.24.51-.48 1.02-.76 1.51h-.01z" fill="#fff"/></g><defs><clipPath id="clip0_602_11895"><path fill="#fff" transform="translate(.33)" d="M0 0h164.33v164.33H0z"/></clipPath></defs></svg>