<svg width="165" height="165" viewBox="0 0 165 165" fill="none" xmlns="http://www.w3.org/2000/svg"><g clip-path="url(#clip0_602_11689)"><path d="M164.49 0H.16v164.33h164.33V0z" fill="#ED6A02"/><path d="M15.4 44.06c-1.23-1.33-1.85-3.33-1.88-6.02v-.46h5.65c0 1.42.15 2.42.44 3.02.3.59.91.89 1.84.89.64 0 1.13-.19 1.45-.58.32-.39.55-1.03.68-1.91.13-.89.19-2.17.19-3.85v-3.17c-.34.57-.86 1.01-1.59 1.33-.72.32-1.56.48-2.51.48-2.32 0-4.01-.85-5.07-2.55-1.06-1.7-1.59-3.96-1.59-6.77 0-7.04 2.81-10.56 8.43-10.56 2.89 0 5.02.89 6.38 2.67 1.37 1.78 2.05 4.23 2.05 7.35v11.41c0 3.38-.63 6.01-1.88 7.89s-3.45 2.82-6.6 2.82c-2.79 0-4.79-.66-6.02-1.99h.03zm8.38-16.27V22.8c0-1.37-.17-2.45-.5-3.25-.34-.8-.94-1.2-1.82-1.2-.93 0-1.55.43-1.86 1.3-.31.86-.46 2.24-.46 4.12 0 1.34.04 2.37.12 3.08.08.71.29 1.28.64 1.72.35.44.88.66 1.61.66.95 0 1.71-.48 2.28-1.43l-.01-.01zm100.71 80.34L104.86 96.8V74.14c0-.48-.25-.92-.67-1.16L83.9 61.27c-.41-.24-.92-.24-1.34 0L62.27 72.98c-.41.24-.67.68-.67 1.16V96.8l-19.62 11.33c-.41.24-.67.68-.67 1.16v23.43c0 .48.25.92.67 1.16l20.29 11.71c.21.12.44.18.67.18.23 0 .46-.06.67-.18l19.62-11.33 19.62 11.33c.21.12.44.18.67.18.23 0 .46-.06.67-.18l20.29-11.71c.41-.24.67-.68.67-1.16v-23.43c0-.48-.25-.92-.67-1.16h.01zM81.9 130.4L65.62 121l16.28-9.4v18.8zm18.95-32.83l-16.27 9.39V88.17l16.27 9.4zm-18.95 9.39l-16.27-9.39 16.27-9.4v18.79zm4.02 2.32l17.61-10.17 17.62 10.17-17.62 10.17-17.61-10.17zm16.27-14.03l-16.27-9.4 16.27-9.4v18.8zm-21.63-9.4l-16.27 9.4V76.46l16.27 9.4v-.01zm-18.95 56.26L44 131.94V111.6l17.61 10.17v20.34zm2.68 0v-18.79l16.27 9.4-16.27 9.39zm58.2-10.17l-17.62 10.17v-20.34l17.62-10.17v20.34zM48.62 20.11c0 .37.02.73.02 1.1 0 1.45-.13 3.04-.54 4.42-.17.58-.5 1.51-.85 1.97l-1.12-.81c.98-1.38 1.16-3.49 1.16-5.23 0-.87-.03-1.75-.06-2.62h2.39c-.21-.43-.42-.87-.65-1.29l.88-.4H47.2v-1.3h3.92V14.5l1.45.1c.11 0 .23 0 .23.17 0 .1-.11.19-.18.21v.97h4.09v1.3h-2.75l.78.3s.12.05.12.14c0 .09-.1.13-.16.14-.18.37-.35.74-.56 1.1h2.97v1.18h-8.49zm-.06 7.24v-1.14h3.43v-1.27h-1.82v-1.1h1.82v-1.06h-1.52c-.23.73-.51 1.53-.88 2.17l-1-.67c.57-1.14.9-2.51 1.06-3.82l1.28.36c.06.01.14.05.14.15 0 .12-.1.16-.18.17l-.15.51h1.23v-1.34l1.47.12c.07 0 .12.1.12.18 0 .14-.16.23-.25.25v.71h3.11v1.17h-3.11v1.05h2.48v1.13h-2.48v1.24h3.56v1.17h-8.31v.02zm1.82-10.11c.17.47.42 1.3.56 1.78-.18.07-.45.14-.62-.1h2.55c.16-.56.3-1.11.41-1.68h-2.9zm19.16 10.28c-1.51-.41-3.21-1.29-4.28-2.62v2.78h-1.34v-2.81c-1 1.27-2.78 2.13-4.17 2.58l-.8-1.17c1.24-.36 3.07-1.03 3.95-2.13h-3.47v-1.16h4.5v-.56h-3.37v-1.06h3.37v-.62h-4.1v-1.13h2.5c-.13-.33-.25-.66-.41-.99h-2.63v-1.19h2.05c-.3-.58-.62-1.14-1.01-1.66l1.29-.79c.29.69.57 1.39.83 2.1l-.68.35h1.1v-2.69l1.35.13c.07 0 .13.04.13.14s-.11.18-.18.21v2.21h.82v-2.71l1.38.11c.07 0 .13.07.13.15 0 .1-.12.17-.18.2v2.23h1.01l-.6-.32c.27-.71.54-1.4.75-2.13l1.38.66c.07.04.16.1.16.21 0 .16-.21.17-.29.17-.3.48-.6.95-.9 1.41h2.12v1.2h-2.61c-.19.34-.38.66-.58.99h2.77v1.13h-4.27v.62h3.46v1.06h-3.46v.56h4.55v1.16h-3.62c.78 1.06 2.99 1.8 4.15 2.1l-.78 1.27-.02.01zm-6.18-8.88l.18.99h1.96c.09-.33.16-.66.23-.99h-2.38.01zm13.93 8.77c-1.69 0-4.39-.27-4.39-2.96 0-1.96 1.42-2.96 2.76-3.64-.4-1.62-.45-3.31-.47-4.99.35.03.72.05 1.08.09.18.01.35.03.53.05.06.01.13.04.13.13 0 .05-.05.11-.08.15-.06.42-.07.88-.07 1.3 0 .52-.01 2.16.22 2.52.03.03.07.04.11.04.45 0 2.52-.96 2.98-1.25.18.61.3 1.24.44 1.86-1.48.35-6.18 1.26-6.18 3.58 0 1.31 1.75 1.57 2.57 1.57 1.34 0 2.53-.14 3.8-.63.07.59.13 1.2.16 1.8-1.18.26-2.39.38-3.58.38h-.01zm9.68-5.54v3.03c0 1.35-.48 2.42-1.53 3.03l-1.04-.96c.84-.44 1.25-1.17 1.25-2.26v-2.26c-.33.23-.68.41-1.01.65 0 .11-.06.29-.18.29-.07 0-.1-.07-.12-.14l-.41-1.55c.57-.25 1.15-.51 1.71-.79v-2h-1.42v-1.24h1.41v-2.72l1.38.18s.13.06.13.12c0 .1-.11.2-.17.24v2.17h.87v1.24h-.9v1.58l1.02-.52v1.33c-.33.2-.67.36-1 .56l.01.02zm7.41 6.02c-1.13-.44-2.21-1.21-3.1-2.14-.93.89-2.02 1.64-3.19 2.02l-.96-1.07a7.148 7.148 0 003.23-1.99c-.68-.88-1.23-1.88-1.64-2.95l.53-.49h-.92V20.1h2.11v-1.8h-2.32v-1.26h2.27v-2.09l1.44.13c.11.01.19.06.19.21 0 .11-.16.2-.23.23v1.51h2.95v1.27h-2.97v1.8h2.32v.85s-.15.52-.18.61c-.38 1.2-.95 2.31-1.72 3.21.74.86 2.1 1.45 3.09 1.81l-.9 1.32v-.01zm-4.45-6.65c.31.93.78 1.81 1.37 2.54.49-.69.99-1.67 1.2-2.54h-2.57zm12.77-1.74v8.32h-1.33v-8.3h-1.5v-.18c-.28.54-.54 1.07-.85 1.58v6.95h-1.33v-5.2c-.21.25-.45.49-.7.72l-.67-1.11c1.16-1.07 2.07-2.62 2.69-4.19l.86.77v-.54h1.47v-3.06l1.37.14c.08.02.21.04.21.17 0 .14-.13.24-.23.27v2.48h1.64v1.19h-1.64l.01-.01zm-2.92-2.95c-.67.97-1.39 1.93-2.26 2.65l-.97-.89c.92-.8 1.66-1.85 2.2-3.03l1.24.86c.06.05.12.1.12.19 0 .18-.2.25-.32.23l-.01-.01zm1.21 4.97c-.08 1.21-.29 3.85-.66 4.9l-1.03-.91c.39-1.54.48-3.2.51-4.79l1.25.46s.08.09.08.14c0 .09-.11.17-.16.2h.01zm2.73 4.02c-.37-1.28-.56-2.93-.67-4.29l1.13-.34c.11 1.34.3 2.69.63 3.99l-1.09.63v.01zm1.09-8.09v-1.04c-.01.08-.1.11-.15.11-.18.51-.36 1.03-.56 1.54l-.86-.39c.17-.65.28-1.3.42-1.95l1.12.55.04.06v-.25h2.55v1.38h-2.55l-.01-.01zm1.83 3.38v4.51c0 1.42-.49 2.24-1.67 2.59l-.89-1.1c.81-.24 1.25-.59 1.25-1.65v-4.36h-1.03V19.6h3.27v1.22h-.92l-.01.01zm8.63 5.19v2.13h-1.33v-2.13h-4.65v-1.26h4.65v-.91h-3.31v-3.87h3.31v-.69h-1.79v-1.71h-2.48v-1.24h2.46v-1.4l1.39.1c.06 0 .15.05.15.14 0 .09-.12.19-.18.23v.93h2.26v-1.4l1.39.1c.06 0 .16.05.16.14 0 .09-.12.19-.18.23v.93h2.4v1.24h-2.39v1.71h-1.89v.69h3.46v3.87h-3.46v.91h4.77v1.26h-4.75.01zm-1.33-4.94h-2.01v1.62h2.01v-1.62zm1.82-3.55h-2.26v.77h2.26v-.77zm1.58 3.55h-2.09v1.62h2.09v-1.62zm8.09-.19v.84h1.81v1.13h-1.66c.38.62.96 1.07 1.49 1.47l-.66 1.06c-.36-.26-.67-.59-.97-.96v3.5h-1.25v-3.34c-.43.69-1 1.4-1.59 1.84l-.87-.98c.8-.66 1.63-1.51 2.1-2.58h-1.68v-1.13h2.05v-.84h-2.12v-1.14h1.36c-.2-.54-.4-1.08-.64-1.6l.84-.31h-1.35v-1.2h1.88V15l1.39.08c.08 0 .18.06.18.17 0 .13-.09.21-.18.24v1.16h1.68v1.2h-1.32l.82.47c.08.04.12.12.12.15 0 .16-.17.2-.26.2-.16.37-.34.73-.53 1.08h1.24v1.14h-1.88zm-1.35-3.05c.13.53.44 1.72.55 2.26-.23.12-.63-.45-.85-.35h1.25c.15-.63.29-1.27.4-1.91h-1.35zm7.24 3.07v6.92h-1.35v-6.92h-.92c-.01 2.36-.38 5.37-2.03 6.85l-.98-.86c1.67-1.56 1.74-4.21 1.74-6.58 0-1.31-.04-2.64-.05-3.95l.8.06c.14-.01.47-.1.79-.23.56-.2 1.67-.68 2.03-.9l.92 1.66c0 .14-.1.21-.2.21-.08 0-.16-.03-.23-.09-.9.21-1.83.34-2.75.46v2.19h3.36v1.19h-1.11l-.02-.01zm8.84 6.51c-.36-.42-.69-.88-1.05-1.29 1.84-.55 3.55-1.36 3.55-4.12 0-1.88-.91-3.59-2.44-3.96-.31 2.52-.93 6.53-2.77 8.02-.34.28-.68.46-1.08.46-.48 0-.95-.4-1.25-.84-.55-.79-.75-1.97-.75-2.99 0-3.57 2.37-6.09 5.15-6.09 2.56 0 4.65 1.91 4.65 5.31 0 3.18-1.7 4.84-4.01 5.51v-.01zm-4.11-6.72a6.08 6.08 0 00-.33 2c0 .6.1 2.15.76 2.15.23 0 .43-.28.57-.47 1.1-1.4 1.56-4.39 1.68-6.3-1.05.23-2.25 1.4-2.68 2.62zM56.7 43.24c-.72-.3-1.4-.72-2.03-1.24v.85h-2.29v.93h3.58v1.14h-8.41v-1.14h3.53v-.93h-2.23v-.95c-.64.52-1.33.96-2.05 1.3l-.8-1.07c1.16-.49 2.33-1.2 3.16-2.28h-2.78v-1.24h2.5v-3.68h-2.06v-1.21h2.04v-1.51l1.37.08c.07 0 .14.05.14.15 0 .1-.11.18-.18.21v1.06h3.1V32.2l1.4.08c.07 0 .16.05.16.15 0 .1-.11.18-.18.21v1.06h1.91v1.21h-1.91v3.68h2.44v1.24h-2.86c.67 1.01 2.28 1.76 3.31 2.17l-.86 1.23v.01zm-4.12-3.47h-1.77c-.47.75-1.07 1.38-1.71 1.93h1.98v-1.24l1.33.1c.06 0 .16.04.16.14 0 .11-.1.2-.18.22v.77h1.95c-.65-.55-1.27-1.18-1.75-1.93l-.01.01zm.71-4.85H50.2v.61h3.09v-.61zm0 1.58H50.2v.58h3.09v-.58zm0 1.54H50.2v.62h3.09v-.62zm16.57 2.52c-.98-.24-1.84-.55-2.7-1.16-.7.42-1.45.72-2.22.92l-.68-.93c-.22.65-.76.89-1.29 1.04l-.77-.83c.68-.2 1-.41 1-1.3v-1.55l-.4.04v2.29h-.98v-2.17l-.3.03c-.05 1.35-.28 2.82-1.16 3.78l-1.05-.65c.64-.8.99-1.89.99-2.97-.19.04-.38.1-.58.14-.02.1-.09.2-.19.2-.09 0-.12-.11-.15-.2l-.3-1.27c.4 0 .81 0 1.21-.03 0-.96-.03-1.93-.03-2.89h1.26c.15-.37.27-.75.38-1.13l1.5.18c.07.02.14.09.14.17 0 .19-.21.26-.33.27-.15.17-.29.34-.45.51h1.63v5.03c0 .44-.01.88-.14 1.28.65-.15 1.28-.38 1.87-.73-.39-.32-.74-.7-1.06-1.1.16-.13.33-.24.5-.35h-.85v-1.03h.87l-1-.46c.45-.63.56-1.28.56-2.09 0-.32-.01-.66-.02-.99h3.41c-.01.55-.03 1.1-.03 1.65 0 .35.07.48.39.48.42 0 1.01-.41 1.36-.68l-.09 1.45c-.48.24-1 .39-1.52.39-.91 0-1.4-.1-1.4-1.25 0-.31.01-.63.01-.94h-.86c-.03.9-.15 1.82-.76 2.44h4.04v.8c-.33.63-.92 1.28-1.46 1.68.68.4 1.57.59 2.32.71l-.67 1.23v-.01zm-10.38 4.4v-1.14h1.36v-3.31h7.97v3.31h1.23v1.14H59.47h.01zm3.69-10.86h-1.65v.68c.29-.2.58-.39.87-.58.23.34.44.69.66 1.04l-.69.59.81-.06v-1.68.01zm-1.65.71v1.09l.8-.06c-.26-.35-.51-.72-.8-1.03zm1.63 6.79h-1v2.23h1V41.6zm2.16 0h-.97v2.23h.97V41.6zm1.03-4.42c.28.28.54.58.86.8.3-.22.58-.49.81-.8h-1.67zm1.2 4.42H66.5v2.23h1.04V41.6zm14.48-2.83a.34.34 0 01-.18-.07c-.87.29-2.54.96-3.34 1.32v2.17l-1.42-.02c.01-.2.01-.41.01-.65v-.79c-.96.45-1.45 1.03-1.45 1.68 0 .56.56.86 1.65.86 1.19 0 2.28-.15 3.51-.56l-.05 1.65c-1.06.36-2.23.41-3.03.41-2.37 0-3.54-.75-3.54-2.26 0-.73.33-1.41.99-2.03.41-.38 1.03-.79 1.83-1.21-.02-.63-.22-.96-.57-.96-.45 0-.86.17-1.24.54-.24.22-.56.52-.93.96-.45.49-.72.83-.89 1-.22-.25-.55-.63-1-1.15 1.35-1.06 2.36-2.34 3.04-3.82-.64.08-1.35.14-2.12.18-.05-.54-.12-1.03-.19-1.47 1.13 0 2.06-.04 2.76-.14.15-.41.28-1.06.41-1.95l1.63.37c.1.03.15.09.15.17 0 .08-.06.16-.2.21-.06.24-.17.61-.32 1.09.55-.07 1.37-.28 2.26-.52l-.13 1.55c-.66.14-1.56.28-2.67.43-.17.42-.45.95-.75 1.41.29-.09.53-.1.69-.1.73 0 1.21.49 1.43 1.51.96-.51 2.06-1.03 3.26-1.56l.55 1.58c0 .11-.04.17-.15.17zm9.2 4.75c-.71.26-1.43.48-2.16.58-.37-.44-.72-.91-1.12-1.31.93-.18 1.88-.39 2.78-.74 1.33-.53 2.59-1.47 2.55-3.37-.04-1.86-1-2.45-2.41-2.42-1.95.06-3.76 1.53-5.66 2.08-.06-.2-.62-1.76-.62-1.83 0-.14.17-.09.25-.09.93-.03 2-.49 2.9-.81 1.15-.44 2.31-.84 3.53-.87 1.91-.05 3.54 1.33 3.6 3.76.06 2.93-1.5 4.23-3.62 5.02h-.02zm12.29 1.46c-1.06-1.55-2.29-2.89-3.63-4.1-.34-.32-.69-.65-1.05-.92-.22-.17-.43-.31-.61-.53-.17-.22-.23-.48-.23-.76 0-.54.23-.85.55-1.2.58-.62 1.18-1.2 1.75-1.83.85-.96 1.7-1.92 2.52-2.93.35.3.7.58 1.05.88.13.1.29.21.4.34.04.04.06.07.06.13 0 .19-.27.22-.4.19-.79.76-1.62 1.51-2.42 2.29-.34.32-.65.68-.99 1-.16.16-.34.3-.48.46-.13.14-.29.35-.29.56 0 .2.1.31.22.42.51.48 1.07.89 1.59 1.34 1.16 1.03 2.25 2.19 3.21 3.45-.42.39-.83.82-1.25 1.21zm7.93-.17c-.18-.41-.4-.8-.65-1.16-.02-.04-.06-.08-.06-.13 0-.04.06-.05.08-.07.6-.05 1.19-.07 1.78-.22 1.26-.33 2.4-.97 2.4-2.69 0-1.44-.87-1.95-1.98-1.95-1.34 0-2.3.86-3.16 1.97-.48.63-.92 1.29-1.34 1.97-.41-.37-.82-.75-1.23-1.12 1.3-1.6 2.35-2.96 3.45-4.75.31-.52.83-1.28 1.04-1.86-.32.07-.63.17-.94.25-.57.16-1.15.33-1.72.45-.09-.55-.17-1.1-.28-1.65 1.33-.14 2.65-.35 3.96-.69.29-.07.56-.15.83-.27.11.15.76 1.08.76 1.2 0 .14-.15.18-.23.2-.42.27-2.07 2.65-2.46 3.24.51-.14 1.04-.24 1.57-.24 1.85 0 3.29 1.12 3.29 3.42 0 3-3.04 3.97-5.11 4.09v.01zm10.78.25c-.44-.42-.89-.85-1.36-1.23 1.21-.38 2.81-1.19 3.47-2.52.33-.64.47-1.39.47-2.13 0-1.29-.41-2.03-1.53-2.03-.78 0-2.7 1.06-3.42 1.55-.08-.22-.66-1.71-.66-1.84 0-.1.12-.09.17-.09.26 0 1.21-.3 1.5-.42.94-.35 1.81-.74 2.81-.74 1.93 0 2.78 1.56 2.78 3.72 0 2.97-2.06 4.88-4.22 5.72l-.01.01zm2.11-10.44c-1.11-.54-2.23-1.01-3.41-1.3.23-.52.45-1.04.67-1.56 1.21.25 2.38.72 3.5 1.32-.24.52-.48 1.04-.76 1.55v-.01z" fill="#fff"/></g><defs><clipPath id="clip0_602_11689"><path fill="#fff" d="M0 0h165v165H0z"/></clipPath></defs></svg>