<svg width="165" height="165" viewBox="0 0 165 165" fill="none" xmlns="http://www.w3.org/2000/svg"><g clip-path="url(#clip0_602_11524)"><path d="M164.99 0H.66v164.33h164.33V0z" fill="#D39200"/><path d="M14.75 20.48c-.28.15-1.11.48-2.48.97-1.08.36-1.77.61-2.05.74v-4.45c.88-.33 1.94-.85 3.19-1.55 1.25-.7 2.13-1.33 2.65-1.9h4.68v31.33h-6V20.48h.01zm9.33 20.93l7.58-11.72.46-.7c.98-1.47 1.7-2.7 2.17-3.69.46-.99.7-2.08.7-3.27 0-1.01-.19-1.77-.58-2.3-.39-.53-.94-.79-1.66-.79-1.08 0-1.83.41-2.24 1.24-.41.83-.62 1.96-.62 3.4v1.43h-5.8v-1.55c0-2.94.69-5.27 2.07-6.98 1.38-1.71 3.54-2.57 6.48-2.57 2.71 0 4.76.72 6.17 2.15 1.41 1.43 2.11 3.46 2.11 6.09 0 1.19-.18 2.31-.54 3.37-.36 1.06-.79 2-1.28 2.82-.49.83-1.25 2-2.28 3.52l-6.03 9.05h9.32v4.72H24.08v-4.22zm100.64 43.87c-7.29-5.76-16.95-5.88-20.49-5.04l-.41.1c-4.09.96-10.58 2.56-18.17 11.99l-.13.16-.1.12c-.07.11-.13.23-.13.37 0 .11.03.22.08.32l.18.29c.95 1.59 2.16 3.65 3.17 5.54l.03.06a.651.651 0 001.03.18c.05-.06.1-.13.14-.19 6.74-9.32 12.04-10.61 15.63-11.45l.43-.1c1.86-.45 8.94-.42 14.05 3.61 3.99 3.15 6.01 8.16 6.01 14.89 0 11.29-5.49 15.7-10.1 17.42-7.14 2.67-13.98-.9-14.03-.93l-.31-.15c-3.92-1.7-9.77-5.24-15.29-16.32C75.2 83.83 65.9 81.73 59.75 80.33l-.33-.07c-2.8-.64-12.53-1.08-20.17 5.02-4 3.19-8.75 9.38-8.75 20.8 0 6.96 1.43 11.55 5.1 16.38.81 1.1 9.04 11.68 24.95 8.63 2.55-.49 6-1.7 9.79-4.55l3.5 3.16c.23.21.59.19.8-.04.1-.11.14-.24.14-.38v-.05l2.53-15.54v-.17c0-.15-.06-.31-.19-.41a.537.537 0 00-.37-.14h-.11l-.16.03-14.89 4.17-.27.04c-.11.02-.21.08-.28.17-.22.24-.2.6.04.81l.17.16 3.34 3.01c-2.15 1.39-4.03 2.03-5.46 2.31-11.51 2.2-17.2-5.34-17.41-5.64l-.08-.11c-2.68-3.51-3.58-6.5-3.58-11.83 0-6.75 1.99-11.76 5.91-14.89 4.98-3.97 11.85-4 13.79-3.55l.33.08c5.04 1.14 11.95 2.7 21.46 21.81 4.94 9.92 11.13 16.41 18.92 19.83.99.51 5.72 2.75 11.86 2.75 2.57 0 5.38-.39 8.26-1.46 4.51-1.69 15.02-7.44 15.02-24.51 0-11.41-4.83-17.62-8.88-20.82M65.77 25.1c-.73.24-1.48.44-2.24.52-.37-.45-.72-.93-1.12-1.34.96-.15 1.94-.34 2.88-.66 1.39-.49 2.71-1.39 2.71-3.3s-.98-2.48-2.44-2.48c-2.01 0-3.91 1.42-5.89 1.92-.06-.2-.6-1.78-.6-1.85 0-.14.18-.08.27-.08.97 0 2.07-.44 3-.73 1.19-.41 2.4-.78 3.66-.78 1.98 0 3.63 1.42 3.63 3.86 0 2.93-1.64 4.19-3.85 4.92h-.01zm12.84 1.28c-1.06-1.55-2.29-2.89-3.63-4.1-.34-.32-.69-.65-1.05-.92-.22-.17-.43-.31-.6-.54-.17-.23-.23-.48-.23-.76 0-.54.23-.85.55-1.2.58-.62 1.18-1.2 1.75-1.83.85-.96 1.7-1.92 2.52-2.93l1.05.87c.13.1.29.21.4.34.04.04.06.07.06.13 0 .2-.27.22-.4.2-.8.76-1.62 1.5-2.43 2.28-.34.32-.65.68-.99 1-.16.16-.34.3-.48.47-.13.14-.29.35-.29.56 0 .2.1.31.22.42.51.48 1.08.89 1.59 1.34 1.16 1.03 2.24 2.18 3.21 3.45-.42.39-.83.82-1.25 1.21v.01zm9.11-.32c-1 0-2.62-.41-2.62-1.89 0-1.04.97-1.54 1.74-1.54.71 0 1.41.48 1.67 1.27.07.26.11.51.12.78.85-.25 1.54-1.02 1.54-2.09 0-1.45-.95-2.15-2.11-2.15-1.82 0-2.87 1.68-4.01 3.07-.37-.38-.75-.76-1.12-1.14 1.74-1.75 3.28-3.75 4.57-5.95-.97.22-1.93.41-2.89.61l-.26-1.67c.13.02.25.02.38.02.54 0 1.07-.07 1.6-.14.74-.1 1.48-.21 2.21-.4.25-.06.51-.16.76-.24.28.38.56.75.83 1.13-.12.1-.25.2-.36.31-.28.28-.54.63-.78.94-.58.76-1.12 1.55-1.68 2.33.36-.1.73-.13 1.11-.13 1.68 0 3.21 1.02 3.21 3.17 0 2.62-1.92 3.71-3.91 3.71zm-1.02-2.3c-.23 0-.38.1-.38.38 0 .52.69.59 1 .59-.06-.41-.18-.97-.63-.97h.01zm18.48 3.09c-1.1-.18-2.77-.76-3.7-1.46l.73-.83h-3.33l.71.78c0 .11-.08.18-.15.18a.44.44 0 01-.22-.07c-.9.59-2.28 1.17-3.3 1.36l-.91-1.2c.89-.13 2.26-.38 2.97-1.04h-1.36V19.3h7.84v5.27h-1.44c.7.58 2.22.79 3.08.92l-.92 1.37v-.01zm-10.1-7.98v-1.1h4.69v-.44h-3.34V16.3h3.34v-.46h-4.13v-1.17h4.11v-1.1l1.48.1c.09 0 .2.06.2.17 0 .12-.1.21-.2.24v.59h4.22v1.17h-4.26v.46h3.31v1.03h-3.31v.44h4.71v1.1H95.07h.01zm7.98 1.38h-5.14v.48h5.14v-.48zm.01 1.37h-5.15v.51h5.15v-.51zm0 1.41h-5.15v.51h5.15v-.51zm9.21-8.25c-.34.93-.7 1.86-1.11 2.75v8.96h-1.4v-6.7c-.24.47-.53.89-.88 1.26l-.88-1.07c1.45-1.66 2.37-4 2.87-6.27l1.6.66c.06.03.12.09.12.17 0 .15-.23.22-.32.24zm4.09 5.88v4.23h2.82v1.27h-7.07v-1.27h2.79v-4.23h-3.05v-1.25h3.05v-2.82c-.8.13-1.61.23-2.4.31l-.54-1.24c1.81-.16 4.42-.58 6.03-1.52l1.09 1.57c-.01.11-.12.17-.21.17-.07 0-.15-.04-.21-.08-.76.21-1.51.41-2.28.55v3.07h3.09v1.25h-3.1l-.01-.01zM65.49 43.3c-.73.24-1.48.44-2.24.52-.37-.45-.72-.93-1.12-1.34.96-.15 1.94-.33 2.88-.66 1.39-.5 2.71-1.4 2.71-3.3s-.98-2.48-2.44-2.48c-2.01 0-3.91 1.42-5.89 1.92-.06-.2-.6-1.78-.6-1.85 0-.14.18-.08.27-.08.97 0 2.07-.44 3-.73 1.19-.41 2.4-.78 3.66-.78 1.98 0 3.63 1.43 3.63 3.86 0 2.93-1.64 4.19-3.85 4.92h-.01zm11.99.15c-.37.37-.89.43-1.36.43-.4 0-.81-.1-1.18-.27-.04-.55-.07-1.08-.15-1.62.42.24.86.41 1.33.41.98 0 .97-3.19.97-3.97 0-.58.01-1.62-.68-1.62-.24 0-.48.06-.72.11-.48 2.06-1.51 5.31-2.57 7.01-.47-.23-.91-.52-1.38-.76 1.12-1.73 1.94-3.9 2.44-5.99-.55.11-1.11.24-1.65.4-.05-.19-.35-1.48-.35-1.54 0-.04.03-.06.06-.06.11 0 .21.03.32.03.64 0 1.3-.12 1.93-.24.23-1.11.36-2.24.43-3.37.39.1.75.21 1.12.32.16.04.33.09.47.16.06.03.14.06.14.14 0 .1-.1.16-.16.18-.14.8-.3 1.61-.5 2.38.24-.03.48-.07.72-.07.82 0 1.32.27 1.6 1.2.19.63.23 1.46.23 2.14 0 1.25-.18 3.76-1.05 4.61l-.01-.01zm2.99-2.66c-.27-.41-.56-.79-.85-1.18.35-.06 1.23-.27 1.23-.8 0-.93-1.16-2.55-1.74-3.17.42-.27.84-.55 1.26-.82.82.9 2.01 2.89 2.01 4.21 0 1.13-1.19 1.51-1.93 1.76h.02zm7.31 4.12c-.45-.41-.89-.83-1.37-1.2 1.21-.37 2.81-1.16 3.47-2.45.33-.62.48-1.36.48-2.07 0-1.26-.42-1.97-1.53-1.97-.79 0-2.7 1.03-3.42 1.51-.09-.21-.66-1.67-.66-1.79 0-.1.12-.09.17-.09.27 0 1.21-.3 1.5-.41.94-.34 1.81-.72 2.81-.72 1.93 0 2.77 1.52 2.77 3.62 0 2.89-2.06 4.75-4.22 5.57zm2.11-10.16c-1.11-.52-2.23-.99-3.41-1.27.23-.51.45-1.02.68-1.52 1.21.24 2.38.7 3.5 1.28-.24.51-.49 1.02-.77 1.51zm15.15 10.3c-1.1-.19-2.77-.76-3.7-1.45l.73-.83h-3.33l.71.78c0 .11-.09.18-.16.18a.51.51 0 01-.22-.07c-.9.59-2.28 1.17-3.3 1.35l-.91-1.2c.89-.12 2.25-.38 2.97-1.04h-1.36V37.5h7.84v5.27h-1.44c.7.58 2.22.79 3.08.92l-.92 1.37.01-.01zm-10.1-7.98v-1.1h4.7v-.44H96.3V34.5h3.34v-.46h-4.13v-1.17h4.11v-1.1l1.48.1c.09 0 .19.06.19.17 0 .13-.09.21-.19.24v.59h4.22v1.17h-4.26v.46h3.3v1.03h-3.3v.44h4.7v1.1H94.93h.01zm7.99 1.38h-5.14v.48h5.14v-.48zm0 1.37h-5.15v.51h5.15v-.51zm0 1.41h-5.15v.51h5.15v-.51zm9.07-8.25c-.34.93-.7 1.86-1.11 2.75v8.96h-1.4v-6.7c-.24.46-.53.89-.88 1.25l-.88-1.07c1.45-1.66 2.38-4 2.87-6.27l1.6.66c.06.03.12.08.12.17 0 .15-.23.22-.33.24l.01.01zm4.09 5.88v4.23h2.82v1.27h-7.07v-1.27h2.79v-4.23h-3.05v-1.25h3.05v-2.82c-.8.12-1.6.23-2.4.31l-.54-1.24c1.81-.15 4.42-.58 6.03-1.52l1.09 1.56c-.01.11-.12.17-.21.17-.07 0-.16-.04-.22-.08-.76.21-1.51.41-2.28.55v3.07h3.09v1.25h-3.1z" fill="#fff"/></g><defs><clipPath id="clip0_602_11524"><path fill="#fff" transform="translate(.66)" d="M0 0h164.33v164.33H0z"/></clipPath></defs></svg>