<svg width="165" height="165" viewBox="0 0 165 165" fill="none" xmlns="http://www.w3.org/2000/svg"><path d="M164.33 0H0v164.33h164.33V0z" fill="#970B31"/><path d="M12.87 36.58c0-1.75.31-3.27.93-4.56.62-1.29 1.53-2.24 2.75-2.86-.95-.7-1.73-1.63-2.32-2.8-.59-1.17-.89-2.6-.89-4.27 0-2.58.68-4.58 2.05-6.02 1.37-1.43 3.33-2.15 5.88-2.15s4.5.71 5.84 2.13c1.34 1.42 2.01 3.39 2.01 5.92 0 1.75-.28 3.22-.85 4.41s-1.33 2.12-2.28 2.79c1.21.62 2.13 1.6 2.75 2.94.62 1.34.93 2.93.93 4.76 0 2.91-.67 5.18-2.01 6.81-1.34 1.62-3.47 2.44-6.38 2.44-5.6 0-8.39-3.17-8.39-9.52l-.02-.02zm10.43 3.69c.35-.92.52-2.07.52-3.46 0-1.55-.17-2.77-.52-3.68-.35-.9-1.03-1.35-2.03-1.35-1 0-1.68.46-2.03 1.37-.35.92-.52 2.13-.52 3.66 0 1.39.17 2.55.52 3.46.35.92 1.03 1.37 2.03 1.37 1 0 1.68-.46 2.03-1.37zm.17-18.2c0-1.13-.18-2.03-.54-2.69-.36-.66-.92-.99-1.66-.99-.74 0-1.32.33-1.7.99-.39.66-.58 1.55-.58 2.69 0 3.22.76 4.84 2.28 4.84 1.52 0 2.21-1.61 2.21-4.84h-.01zm90.02 58.77L96.71 96.8c-.63.63-.96 1.09-.96 2.4v44.74c0 .52.43.95.96.95h17.33c.53 0 .95-.43.95-.95V81.25c0-.53-.41-1.49-1.51-.4m-48.33 20.79L48.37 117.6c-.63.63-.96 1.09-.96 2.4v23.94c0 .52.43.95.96.95H65.7c.53 0 .96-.43.96-.95v-41.9c0-.53-.42-1.49-1.51-.4z" fill="#fff"/><path d="M121.12 61.48c0-.13-.04-.26-.14-.36a.49.49 0 00-.31-.14h-.09l-.14.01-12.85 2.9-.23.02c-.09.02-.18.06-.25.13-.19.19-.19.5 0 .69l.15.15 2.93 2.93-29.11 29.11-13.45-13.45a.392.392 0 00-.55 0l-3.65 3.65-21.56 21.55c-.15.15-.15.4 0 .55l3.65 3.65c.15.15.39.15.54 0l21.29-21.28 9.76 9.76s.02.03.03.05l3.65 3.65c.15.15.39.15.55 0l33.04-33.04 3.08 3.08c.19.19.5.19.69 0 .09-.09.13-.2.14-.32v-.04l2.82-13.12v-.14l.01.01z" fill="#fff"/><path d="M89.41 104.44l-8.12 8.19c-.15.13-.38.12-.52-.02l-7.36-7.5c-1.35-1.34-1.64-.25-1.64.27v38.56c0 .52.42.95.95.95h17.34c.52 0 .95-.43.95-.95v-39.19c0-.53-.42-1.49-1.61-.3M55.85 24.74c-.1 1.69-.58 2.41-2.03 2.79l-.8-1.17c1.01-.2 1.4-.47 1.5-1.72.13-1.76.13-3.55.13-5.33h-.4c-.06 1.64-.15 3.28-.55 4.85-.31 1.18-.93 2.62-1.76 3.42l-1.11-.8c.22-.24.46-.46.65-.73-1.05.23-2.1.44-3.15.68-.01.11-.07.21-.18.21-.1 0-.17-.1-.2-.2l-.51-1.24c.65-.07 1.29-.17 1.94-.25v-.69h-1.66v-1.04h1.66v-.48h-1.63v-4.1h1.62v-.47h-1.65v-1.11h1.65v-.58c-.4.03-.79.06-1.2.1l-.34-.62c-.14.55-.28 1.11-.43 1.66-.03.1-.17.52-.17.59v9.05h-1.29v-6.34c-.16.27-.31.52-.49.76l-.79-1.17c1.09-1.48 1.76-4.27 2.05-6.18l1.42.52c.05.02.12.1.12.17 0 .11-.16.17-.23.18l-.05.21c.93-.1 2.87-.35 3.68-.79l.9 1.4c0 .11-.08.15-.17.15-.07 0-.16-.03-.22-.08-.52.11-1.05.18-1.57.27v.69h1.81v.72h.62v-3.29l1.35.18c.08.01.23.07.23.2 0 .11-.08.2-.17.24-.02.89-.06 1.79-.09 2.68.54-.01 1.08-.03 1.63-.03-.01 2.23 0 4.46-.13 6.68l.01.01zm-6.43-4.93h-.6v.76h.6v-.76zm0 1.66h-.6v.69h.6v-.69zm1.66-1.66h-.54v.76h.54v-.76zm.02 1.66h-.57v.69h.57v-.69zm1.27-2.16v-.85h-1.8v.47h1.58v4.1h-1.58v.48h1.55v1.02h-1.55v.58c.48-.07.95-.17 1.44-.25l-.07.48c.9-1.72 1.01-4.04 1.05-6.02h-.62v-.01zm12.98 1.31c.41.93.93 1.78 1.57 2.51-.27.41-.55.79-.84 1.17a6.56 6.56 0 00-3.26-.85c-.49 0-1.58.24-1.58 1.02 0 1.24 1.66 1.33 2.42 1.33.88 0 1.64-.17 2.5-.32-.12.54-.21 1.07-.31 1.61-.59.1-1.18.17-1.77.17-1.54 0-4.24-.2-4.24-2.62 0-1.76 1.71-2.36 2.95-2.36.73 0 1.23.11 1.93.25-.24-.54-.49-1.07-.72-1.62-1.39.28-2.98.48-4.39.53l-.31-1.41c1.4-.03 2.81-.09 4.19-.42-.15-.43-.28-.85-.4-1.27-1.01.22-2.02.38-3.06.44-.13-.45-.25-.91-.37-1.37 1.03-.06 2.06-.14 3.09-.38-.18-.68-.32-1.38-.44-2.07.49-.04.99-.1 1.48-.13h.05c.09 0 .19.04.19.17 0 .09-.06.17-.12.22.06.47.13.93.23 1.4.58-.17 1.14-.46 1.68-.8.1.52.22 1.04.31 1.58-.55.21-1.12.41-1.69.59.13.45.29.89.46 1.32.96-.24 1.91-.63 2.82-1.06.11.54.17 1.07.26 1.59-.86.35-1.74.58-2.62.77l-.01.01zm10.89 5.67c-.37.38-.88.44-1.36.44-.4 0-.81-.11-1.18-.3-.05-.53-.08-1.06-.14-1.59.41.25.87.39 1.33.39.98 0 .96-3.17.96-3.97 0-.58.01-1.61-.68-1.61-.24 0-.48.06-.72.11-.48 2.04-1.51 5.31-2.58 7.01-.47-.25-.9-.54-1.37-.76 1.12-1.73 1.94-3.92 2.44-6-.56.11-1.11.25-1.65.41-.04-.16-.35-1.51-.35-1.51 0-.07.08-.08.12-.08.11 0 .2.03.31.03.61 0 1.25-.13 1.87-.26.23-1.1.36-2.22.43-3.36.36.09.71.2 1.06.31.16.05.34.1.5.17.06.03.16.07.16.17 0 .09-.09.13-.14.15-.14.79-.3 1.59-.5 2.38.24-.03.48-.07.72-.07.82 0 1.32.25 1.59 1.2.2.63.24 1.47.24 2.14 0 1.28-.18 3.71-1.05 4.59l-.01.01zM78 17.41c-.27-.71-.57-1.37-.92-2l.98-.47c.33.62.6 1.27.86 1.95l-.92.52zm1.23 6.22c-.27-.41-.56-.79-.84-1.17.35-.07 1.23-.29 1.23-.82 0-.9-1.18-2.54-1.74-3.14.46-.23.92-.48 1.35-.76.72.92 1.92 2.93 1.92 4.2 0 1.06-1.22 1.45-1.92 1.69zm.39-6.71c-.25-.7-.56-1.37-.91-2l.93-.51c.35.63.66 1.28.9 1.99l-.93.52h.01zm7.79 9.47c-.35.02-.69-.12-.96-.37-1.09-1.03-1.51-3.03-1.62-4.58-.09-1.29-.05-2.59.08-3.88.04-.5.07-.98.14-1.46.38.09 1.4.37 1.73.56.05.03.09.08.1.15.01.15-.13.25-.23.28-.21.74-.31 2.07-.34 2.86-.03.6.01 1.19.05 1.79.04.62.16 1.29.37 1.86.09.27.3.9.6.88.58-.04 1.22-1.94 1.44-2.52l.84 1.77c-.32.96-1.25 2.59-2.21 2.66h.01zm5.3-2.53c-.23-2.27-.76-4.14-1.95-5.98.5-.23.97-.5 1.47-.72 1.05 1.57 1.78 4.04 2.04 6-.52.26-1.04.49-1.56.71v-.01zm9.9 3.33c-1.69.01-3.33-.7-3.35-2.98 0-.34.04-.68.06-1.01-.88-.31-2.07-.71-2.09-2.02 0-.57.31-1.31.53-1.81.46.1.92.24 1.36.34-.2.29-.59.83-.59 1.24.01.49.7.71 1.03.79.19-1.12.41-2.21.6-3.33-.22.27-.42.54-.63.8-.62-.61-1.27-1.14-1.93-1.67.27-.42.54-.84.83-1.27.64.48 1.24 1 1.8 1.55.19-.91.34-1.88.39-2.82.39.07.79.19 1.17.28.16.03.33.07.48.13.08.03.17.07.17.18 0 .15-.15.3-.23.37-.09.31-.16.65-.23.96-.15.66-.29 1.33-.45 1.99-.23 1.04-.47 2.1-.65 3.16.48.09.98.09 1.46.13l-.22 1.37c-.47 0-.95-.04-1.42-.12-.04.21-.04.41-.04.62.01 1.18.83 1.66 1.75 1.65 1.03-.02 1.48-.63 1.47-1.8 0-1.35-.99-2.65-1.77-3.54.46-.18.9-.41 1.32-.64 1.16 1.28 2 2.63 2.03 4.58.03 1.9-1.36 2.83-2.86 2.86l.01.01zM46.79 40.91c-.21 1.02-.49 2.45-.98 3.3l-1.01-.52c.47-1.03.8-2.38.9-3.54l1.09.41c.08.03.13.1.13.2 0 .07-.08.13-.13.15zm8.76-.89a9.477 9.477 0 01-3.21-1.89c-.73.71-1.46 1.24-2.35 1.65l-.5-.75.14.62c-.3.17-.62.28-.94.41-.06-.24-.13-.49-.19-.73l-.31.06v5.67h-1.22v-5.53c-.6.07-1.18.17-1.77.24l-.13-1.23c.24-.03.49.02.71-.07.4-.51.77-1.06 1.13-1.61-.54-.27-1.07-.51-1.64-.63v-.62c.87-1 1.59-2.15 2.2-3.38.42.18.83.41 1.23.65.1.06.26.14.26.3 0 .14-.2.18-.29.18-.63.73-1.26 1.46-1.94 2.14.25.14.49.29.72.44.24-.37.45-.75.65-1.14.19.12 1.24.76 1.24.99 0 .15-.18.18-.27.15-.67.85-1.34 1.7-2.04 2.54.4-.04.79-.1 1.2-.14-.07-.24-.15-.49-.24-.72.32-.13.64-.27.96-.41.15.46.29.93.42 1.4.66-.31 1.52-.83 2.07-1.38-.58-.64-1.14-1.28-1.59-2.05l.78-.8h-1.15v-1.23h5.57v1.06c-.36 1.06-1.11 2.18-1.78 2.97.74.71 2.12 1.23 3.03 1.54-.27.42-.51.87-.76 1.31l.01-.01zm-6.6 3.14c-.26-.83-.44-1.71-.62-2.57l1-.41c.15.86.33 1.71.6 2.52l-.99.45.01.01zm.26 1.61V43.6h2.54v-1.68h-1.88v-1.17h1.86v-1.59c.32.04.65.07.98.11.14.01.28.01.43.06.06.01.12.06.12.14 0 .11-.11.2-.19.23v1.05h2.06v1.17h-2.06v1.68h2.7v1.17h-6.56zm1.83-10.4c.33.71.77 1.33 1.26 1.89.43-.51.84-1.23 1.09-1.89h-2.35zm8.89 4.13c-.65-.49-1.32-.99-2.02-1.4l.86-1.35c.5.29 1.47 1.14 1.88 1.61l-.71 1.14h-.01zm-.42 6.17c.04.06.06.14.06.21 0 .07-.06.12-.12.12-.11 0-1.29-.82-1.45-.93.68-1.2 1.28-3.36 1.6-4.75l1.14 1.07c-.39 1.44-.78 2.86-1.24 4.27l.01.01zm.7-9.71c-.57-.44-1.14-.88-1.75-1.23l.93-1.35c.38.31 1.28 1.1 1.55 1.49l-.73 1.09zm8.42 4.68c-.41-.12-.81-.24-1.2-.4v5.74h-1.31v-2.36h-2.99c-.39 1.04-.77 1.89-1.58 2.58l-1.04-.79c1.46-1.24 1.71-3.31 1.71-5.29-.4.17-.81.34-1.24.44l-.66-1.17c1.13-.26 2.4-.61 3.38-1.32a9.604 9.604 0 01-1.58-2.03h-1.05v-1.23h2.8V32.2l1.5.1c.09 0 .22.1.22.23 0 .14-.14.21-.24.24v1.04h3.3v1.23h-1.27c-.43.79-1 1.45-1.6 2.04.84.59 2.5.99 3.48 1.13l-.65 1.43h.02zm-2.51.9h-2.63c-.03.32-.06.66-.11.99h2.74v-.99zm0-1.78c-.47-.28-.95-.58-1.4-.91-.38.25-.77.46-1.18.67 0 .31 0 .61-.01.92h2.59v-.68zm-2.49-3.74c.32.49.69.96 1.13 1.3.4-.34.75-.8 1.02-1.3h-2.15zm17.44 10.05c-1.11-.73-1.84-1.5-2.67-2.64-.79 1.11-1.79 2.03-2.93 2.56l-.99-.95c1.29-.68 2.38-1.51 3.18-2.92-.82-1.62-1.2-3.42-1.42-5.29h-2.93v.07c0 .53.01 1.05.01 1.58h2.85c-.02 1.08-.02 2.17-.16 3.23-.23 1.75-.78 2.31-2.25 2.46l-.66-1.14c1.46-.17 1.65-.75 1.68-2.39v-.97H73.3c0 2.03-.32 4.81-1.54 6.32l-1.13-.82c1.24-1.44 1.33-3.82 1.33-5.76 0-1.29-.08-2.6-.1-3.89h4.31c-.07-.85-.1-1.71-.12-2.56l1.58.2c.09.01.25.06.25.2 0 .13-.13.26-.23.3-.01.35-.01.67-.01 1.02 0 .27 0 .56.01.83h3.86v1.34h-3.8c.09 1.29.34 2.56.74 3.76.4-.91.68-2.08.84-3.09l1.51.95c.08.04.15.16.15.26 0 .16-.24.21-.34.23-.36 1.11-.75 2.21-1.32 3.19.72 1.12 1.77 1.87 2.81 2.5l-1.01 1.41-.02.01zm-.36-12.04c-.29.48-.57.96-.87 1.42l-1.11-.39c.26-.67.5-1.36.68-2.08l1.4.57c.09.04.2.12.2.24 0 .14-.2.22-.29.23l-.01.01zm12.9 11.85c-1.97-.69-3.72-2.09-4.9-4.13 1.03-.33 2.06-.64 3.05-1.1h-4.27v3.19l1.94-.5-.16 1.33c-1.28.33-2.57.66-3.86 1.01-.03.1-.11.22-.22.22-.05 0-.1-.04-.12-.1l-.62-1.45c.57-.09 1.14-.16 1.7-.29V39.7h-1.98v-1.32h1.98v-5.6h7.36v1.25h-6.02v.74h5.26v1.13h-5.26v.72h5.26v1.09h-5.26v.7h6.76v1.22h-1.63l.65 1c0 .12-.09.19-.18.19-.08 0-.16-.04-.23-.08-.74.18-1.5.33-2.25.45.72 1.22 2.7 2.02 3.88 2.33l-.89 1.33.01.03zm8.7-.02c-1.69.02-3.33-.7-3.35-2.97 0-.34.03-.68.06-1.02-.88-.31-2.07-.7-2.09-2.02 0-.57.31-1.31.53-1.8.46.1.92.24 1.36.34-.2.28-.59.83-.59 1.24.01.49.7.7 1.03.79.19-1.11.41-2.21.6-3.33-.22.27-.42.54-.63.8a21.44 21.44 0 00-1.93-1.66c.27-.42.55-.85.83-1.27.64.48 1.24 1 1.8 1.55.19-.92.34-1.88.39-2.82.39.07.78.18 1.17.28.16.03.33.07.48.13.08.03.17.07.17.18 0 .16-.15.3-.23.37-.09.31-.16.65-.23.96-.15.66-.29 1.33-.45 1.99-.23 1.04-.47 2.1-.65 3.16.48.09.98.09 1.46.13l-.22 1.36c-.47 0-.95-.04-1.42-.11-.04.21-.04.41-.04.62.01 1.19.83 1.67 1.75 1.65 1.02-.01 1.48-.63 1.47-1.8-.01-1.35-.99-2.65-1.77-3.54.46-.18.9-.41 1.32-.65 1.16 1.28 2 2.63 2.03 4.58.03 1.9-1.36 2.83-2.86 2.86h.01z" fill="#fff"/></svg>