<svg width="166" height="165" viewBox="0 0 166 165" fill="none" xmlns="http://www.w3.org/2000/svg"><g clip-path="url(#clip0_602_11935)"><path d="M165.32 0H.99v164.33h164.33V0z" fill="#DC007A"/><path d="M15.31 20.48c-.28.15-1.11.48-2.48.97-1.08.36-1.77.61-2.05.74v-4.45c.88-.33 1.94-.85 3.19-1.55 1.25-.7 2.13-1.33 2.65-1.9h4.68v31.33h-6V20.48h.01zm11.24 23.23c-1.43-1.64-2.15-3.84-2.15-6.6V23.07c0-2.86.7-5.11 2.09-6.75 1.39-1.64 3.49-2.46 6.31-2.46 2.82 0 4.87.82 6.27 2.46 1.39 1.64 2.09 3.89 2.09 6.75v14.04c0 2.73-.72 4.93-2.17 6.58-1.44 1.65-3.51 2.48-6.19 2.48-2.68 0-4.82-.82-6.25-2.46zM35.08 37V23.19c0-1.16-.15-2.13-.44-2.9-.3-.77-.91-1.16-1.84-1.16-.98 0-1.61.38-1.9 1.14-.28.76-.43 1.73-.43 2.92V37c0 2.61.77 3.91 2.32 3.91 1.55 0 2.28-1.3 2.28-3.91h.01zm63.32 70.83H68.14c-.18 0-.33.17-.33.37v9.1c0 .21.15.37.33.37H98.4c.19 0 .33-.16.33-.37v-9.1c0-.2-.15-.37-.33-.37zm0-19.35H68.14c-.18 0-.33.17-.33.37v9.1c0 .21.15.37.33.37H98.4c.19 0 .33-.16.33-.37v-9.1c0-.2-.15-.37-.33-.37zm-.42-13.75L83.45 60.2c-.1-.1-.26-.1-.35 0L68.57 74.73a.25.25 0 00.18.43H97.8c.22 0 .34-.27.18-.43zm13.64 43.05l14.53-14.53c.1-.1.1-.26 0-.35l-14.53-14.53a.25.25 0 00-.43.18v29.05c0 .22.27.34.43.18zm-43.05 13.63l14.53 14.53c.1.1.26.1.35 0l14.53-14.53a.25.25 0 00-.18-.43H68.75c-.22 0-.34.27-.18.43zM54.93 88.37L40.4 102.9c-.1.1-.1.26 0 .35l14.53 14.53c.16.16.43.05.43-.18V88.55c0-.22-.27-.34-.43-.18zM64.5 26.3c-1.99-1.3-3.61-3.68-4.45-6.13-.19.64-.38 1.26-.65 1.85-.59 1.34-1.52 2.56-2.62 3.44-.4.31-.81.59-1.24.8l-1.08-1.27c.48-.23 1.02-.46 1.45-.83 1.57-1.31 2.58-3.23 2.98-5.54.25-1.45.19-2.93.19-4.4l1.68.19c.1.01.23.07.23.21 0 .14-.12.23-.22.26-.02.58-.04 1.14-.04 1.72 0 1.91.91 3.98 1.88 5.45.72 1.08 2.08 2.28 3.14 2.88l-1.25 1.39v-.02zm9.2-4.29c-.48 0-.96-.05-1.43-.17-.1-.51-.29-.98-.46-1.47.5.14 1.02.25 1.54.25.94 0 1.84-.37 1.84-1.71 0-.78-.51-1.29-1.12-1.29-.24 0-.48.04-.71.11.14.43.29.86.44 1.29-.4.2-.8.38-1.19.54-.16-.46-.32-.91-.48-1.37-.55.25-1.09.54-1.62.86.39 1.07.76 2.16 1.09 3.25.31 1.04.69 2.05.94 3.1-.43.25-.87.41-1.32.62-.51-2.15-1.14-4.28-1.87-6.32-.62.4-1.24.81-1.83 1.24-.24-.48-.49-.96-.71-1.45.67-.38 1.34-.76 2.02-1.12-.33-.79-.71-1.58-1.11-2.33.17-.05 1.35-.49 1.43-.49.08 0 .08.05.12.14.26.69.5 1.4.77 2.09.51-.28 1.02-.54 1.54-.79-.29-.72-.65-1.41-1.03-2.08.45-.17.89-.36 1.34-.51.38.68.68 1.41.99 2.13.46-.14.94-.18 1.41-.18 1.28 0 2.36.98 2.36 2.6 0 2.02-1.37 3.06-2.92 3.06h-.03zm5.68 4.35V14.21h9.93v12.15h-9.93zm8.5-10.8h-7.11v9.5h7.11v-9.5zm-6.68 8.32v-1.21h2.33V20.6h-1.85v-1.15h1.85v-1.46h-2.21v-1.21h6.07v1.19h-2.52v1.46h1.91v.99l.61.36s.06.07.06.1c0 .13-.15.19-.25.19-.21.48-.41.95-.6 1.44l-1-.38c.16-.5.3-1.02.45-1.54h-1.19v2.1h2.56v1.18H81.2v.01zm16.98 1.53c-.35-.4-.66-.82-1.02-1.21 1.79-.52 3.43-1.28 3.43-3.89 0-1.77-.88-3.38-2.36-3.73-.3 2.38-.9 6.15-2.68 7.55-.33.26-.66.44-1.05.44-.46 0-.92-.38-1.21-.8-.53-.74-.72-1.85-.72-2.81 0-3.37 2.29-5.74 4.98-5.74 2.48 0 4.5 1.8 4.5 5 0 2.99-1.65 4.56-3.88 5.19h.01zm-3.97-6.34a5.66 5.66 0 00-.31 1.88c0 .56.1 2.02.73 2.02.23 0 .42-.26.55-.44 1.07-1.32 1.51-4.13 1.62-5.94-1.01.22-2.18 1.32-2.6 2.47l.01.01zm17.109-3.24c-.23.45-.46.9-.71 1.34v9.22h-1.46v-7.12c-.95 1.39-2.51 2.88-3.89 3.65l-1.03-.97c2.07-1.21 4.4-3.62 5.3-6.12h-4.61v-1.41h9.93v1.41h-3.53zm3.28 7.29c-1.31-.86-2.92-2.71-3.83-4.1.39-.35.75-.73 1.12-1.1.84 1.66 2.33 2.95 3.73 3.93l-1.01 1.27h-.01zm8.711-1.17v4.62h-1.46v-4.62h-4.58v-1.38h4.58v-4.68h-3.94v-1.36h9.36v1.36h-3.97v4.68h4.59v1.38h-4.58zm-3.45-1.92c-.42-1-.86-2.02-1.36-2.96l1.29-.71c.41.88.92 2.09 1.13 3.05l-1.06.62zm6.73-2.58c-.42.89-.84 1.78-1.33 2.64l-1.07-.51c.4-1.06.76-2.14 1.07-3.24l1.45.66c.08.04.17.12.17.24 0 .15-.19.21-.29.21zm7.15-1.28l.13.97-.99.27-.38-1.27h-.34c-.4.58-.79 1.22-1.29 1.69l-1.05-.69c.84-.95 1.48-2.19 1.79-3.51l1.39.45c.07.03.16.08.16.18 0 .13-.13.21-.23.23-.08.17-.15.35-.26.51h2.34v1.17h-1.27zm4.09 4.98V22h2.36v1.26h-2.36c0 2.16.21 3.37-1.98 3.75l-.82-1.2c.83-.16 1.44-.23 1.44-1.4v-1.15h-3.52c.36.34.7.69 1.04 1.05.25.27.52.51.76.8l-.91 1.02c-.66-.68-1.31-1.38-2.04-1.97l.81-.9h-2.25V22h6.11v-.86H130v-1.19h4.44v-.84h-3.2v-1.2h3.16v-.96h1.5c.06.01-.28.26-.28.33 0 .1.15-.33.18-.42v1.05h3.51v1.2h-3.53v.84h4.68v1.2h-2.63zm.89-4.92l-.38 1.21-1.05-.11.05-1.14h-.78c-.19.29-.63.87-.93 1.2l-1.22-.44c.6-.73 1.42-2.27 1.65-3.24l1.43.42c.06.01.14.07.14.16 0 .13-.16.15-.24.15-.08.21-.18.41-.28.61h3.2v1.19h-1.58l-.01-.01zM65.05 38.45a.34.34 0 01-.18-.07c-.87.3-2.55.96-3.34 1.33v2.17l-1.42-.02c.01-.2.01-.41.01-.65v-.79c-.96.45-1.45 1.03-1.45 1.68 0 .56.55.86 1.65.86 1.19 0 2.28-.16 3.51-.56l-.05 1.65c-1.06.35-2.24.41-3.03.41-2.37 0-3.55-.75-3.55-2.26 0-.73.34-1.41.99-2.03.41-.38 1.02-.79 1.83-1.21-.02-.63-.22-.96-.57-.96-.45 0-.85.17-1.24.53-.24.22-.56.52-.93.96-.45.49-.72.83-.89 1-.22-.25-.55-.63-1-1.15 1.35-1.06 2.37-2.34 3.04-3.82-.64.08-1.35.14-2.12.18-.05-.54-.12-1.03-.19-1.47 1.13 0 2.06-.04 2.76-.14.15-.41.28-1.06.41-1.94l1.63.37c.1.03.14.08.14.17 0 .09-.06.15-.19.21-.06.24-.17.61-.32 1.09.55-.07 1.37-.28 2.25-.52l-.13 1.55c-.66.14-1.56.28-2.66.43-.17.42-.45.94-.75 1.41.29-.09.53-.1.69-.1.73 0 1.22.49 1.44 1.51.96-.51 2.06-1.03 3.26-1.56l.55 1.58c0 .12-.05.17-.15.17v-.01zm8.36-3.29c-.59.17-1.17.31-1.76.42-.63 2.17-1.5 4.74-2.63 6.61-.45-.22-.89-.49-1.33-.76 1.03-1.72 1.87-3.68 2.41-5.68-.59.1-1.19.14-1.8.15-.06-.49-.13-.98-.19-1.49.22.03.44.03.67.03.55 0 1.12-.03 1.68-.12.18-.79.28-1.62.33-2.44.57.08 1.12.15 1.68.28-.14.65-.29 1.31-.48 1.96.5-.11.97-.31 1.45-.48 0 .5-.02 1-.02 1.51l-.01.01zm3.37 8.62c-.5-.52-1.01-1.05-1.6-1.45v.46c-.05 1.46-1 1.85-2.09 1.85a3.4 3.4 0 01-1.14-.18c-.72-.28-1.46-1.02-1.42-2 .05-1.42 1.07-2.14 2.2-2.14.33 0 .66.03.99.08-.01-.66-.04-1.32-.01-1.99.01-.34.06-.63.18-.96h1.09c.07 0 .42-.06.42.11 0 .03 0 .04-.01.06-.16.25-.24.56-.25.86-.03.75 0 1.48.03 2.23.87.35 1.86 1 2.56 1.68-.29.48-.6.96-.93 1.39h-.02zm-3-2.03c-.26-.12-.56-.15-.86-.15-.46 0-1.03.14-1.06.8-.02.65.67.95 1.14.95.45 0 .78-.1.8-.7.01-.3 0-.59-.01-.89l-.01-.01zm3.23-4.71c-.85-.78-1.9-1.32-2.94-1.62l.7-1.41c1.04.31 2.16.81 3.01 1.62l-.77 1.41zm9.09 7.67c-1.03-1.57-2.23-2.94-3.54-4.18-.33-.33-.67-.66-1.03-.94-.21-.17-.43-.32-.59-.55-.16-.23-.22-.49-.21-.77.01-.54.25-.84.58-1.19.59-.61 1.21-1.17 1.79-1.79.87-.94 1.74-1.88 2.59-2.87.34.3.69.59 1.03.89.13.1.29.22.39.35.04.04.06.07.06.13 0 .2-.27.22-.4.19-.81.74-1.65 1.47-2.48 2.23-.35.31-.67.66-1.01.98-.16.15-.35.29-.49.45-.14.14-.3.35-.3.56 0 .2.09.31.21.43.5.49 1.05.91 1.56 1.38 1.14 1.06 2.2 2.24 3.14 3.53-.43.38-.85.8-1.28 1.18l-.02-.01zm9.74-6.16c-.73.51-1.23 1.9-1.01 3.05.26 1.37 1.92 1.52 2.79 1.5.28 0 .57-.03.86-.06-.12.54-.26 1.06-.38 1.59h-.25c-1.7.05-4.15-.2-4.43-2.82-.17-1.61.25-2.88.91-3.65-1.42.24-2.84.6-4.21 1.09-.09-.53-.22-1.06-.34-1.58.73-.18 1.53-.24 2.23-.59.72-.36 2.27-2.28 2.85-3.01-.85.09-1.7.15-2.54.13 0-.5-.02-1-.07-1.48 1.26.07 2.57.12 3.83-.12.34-.06.64-.21.95-.37.26.44.51.89.74 1.34-1.24.91-2.47 2.25-3.58 3.38 1.78-.27 3.58-.48 5.37-.64v1.7c-1.06-.09-2.74-.13-3.69.53l-.03.01zm10.09 6.55c-.45-.42-.91-.85-1.39-1.23 1.23-.37 2.87-1.18 3.55-2.51.33-.63.45-1.49.5-2.23.08-1.28-.28-2.04-1.43-2.12-.8-.05-2.82.87-3.58 1.31-.07-.22-.56-1.74-.55-1.87 0-.1.13-.08.18-.07.27.02 1.25-.22 1.55-.32.98-.28 1.89-.61 2.91-.54 1.97.13 2.72 1.74 2.58 3.89-.2 2.95-2.11 4.86-4.32 5.69zm2.16-10.72c-1.13-.54-2.28-1.03-3.49-1.32.23-.53.45-1.05.69-1.58 1.23.25 2.43.73 3.57 1.34-.25.53-.49 1.05-.77 1.57v-.01z" fill="#fff"/></g><defs><clipPath id="clip0_602_11935"><path fill="#fff" transform="translate(.99)" d="M0 0h164.33v164.33H0z"/></clipPath></defs></svg>