<?xml version="1.0" standalone="no"?>
<!DOCTYPE svg PUBLIC "-//W3C//DTD SVG 20010904//EN"
 "http://www.w3.org/TR/2001/REC-SVG-20010904/DTD/svg10.dtd">
<svg version="1.0" xmlns="http://www.w3.org/2000/svg"
 width="1000.000000pt" height="1000.000000pt" viewBox="0 0 1000.000000 1000.000000"
 preserveAspectRatio="xMidYMid meet">
<metadata>
Created by potrace 1.14, written by Peter Selinger 2001-2017
</metadata>
<g transform="translate(0.000000,1000.000000) scale(0.100000,-0.100000)"
fill="#000000" stroke="none">
<path d="M4160 9516 c-225 -52 -369 -92 -575 -161 -904 -302 -1642 -816 -2167
-1511 -342 -454 -587 -973 -732 -1554 -316 -1264 -139 -2550 497 -3615 723
-1209 1938 -2015 3302 -2189 422 -54 895 -45 1305 25 757 129 1433 436 2063
938 177 141 532 496 679 681 567 711 898 1511 1004 2420 35 310 29 789 -16
1145 -243 1913 -1475 3283 -3395 3775 -193 49 -344 80 -392 80 -49 0 -145 -25
-201 -51 -57 -28 -146 -111 -179 -167 -15 -24 -35 -74 -45 -111 -43 -156 -7
-300 105 -419 86 -91 140 -115 360 -163 626 -137 1191 -398 1652 -763 131
-104 401 -374 504 -504 399 -506 638 -1108 728 -1832 26 -209 26 -758 0 -950
-148 -1095 -723 -2032 -1612 -2625 -171 -114 -216 -138 -325 -169 -313 -89
-538 -29 -639 171 -49 98 -64 172 -65 318 0 151 9 179 82 257 58 63 122 106
282 193 301 162 445 286 524 447 120 246 97 526 -57 686 -55 57 -164 123 -263
158 -187 67 -132 65 -1570 62 l-1299 -3 -99 -27 c-265 -73 -429 -217 -476
-417 -19 -80 -8 -278 20 -361 70 -208 205 -343 515 -516 241 -134 329 -200
380 -289 32 -53 49 -169 41 -275 -18 -252 -130 -408 -324 -449 -164 -35 -420
18 -587 122 -443 274 -835 653 -1130 1092 -519 775 -719 1661 -595 2631 101
789 411 1469 902 1980 276 288 569 502 938 688 334 169 673 285 1095 376 161
35 235 70 304 146 114 125 147 287 91 450 -29 84 -62 135 -124 192 -63 57
-115 84 -201 107 -85 22 -141 18 -305 -19z"/>
<path d="M4755 8379 c-55 -4 -119 -11 -142 -14 l-43 -6 0 -1755 0 -1754 -130
0 -130 0 0 1729 0 1730 -109 -30 c-401 -107 -787 -296 -1113 -545 l-48 -36 0
101 c0 56 -4 101 -9 101 -22 0 -206 -154 -318 -265 l-123 -122 0 -119 0 -119
-71 -85 c-425 -509 -687 -1154 -749 -1848 -24 -256 1 -793 40 -898 l10 -24
194 0 c107 0 197 3 199 8 2 4 -2 54 -9 112 -8 58 -16 215 -20 350 -7 253 0
356 42 623 l17 107 178 0 179 0 0 -605 0 -605 225 0 225 0 0 605 0 605 120 0
120 0 0 -605 0 -605 195 0 195 0 0 835 0 835 -315 0 -315 0 0 529 0 528 75 71
c174 166 409 333 630 449 67 34 125 63 128 63 4 0 7 -738 7 -1640 l0 -1640
546 0 546 0 -7 1098 c-4 603 -11 1491 -14 1972 l-6 875 -50 1 c-27 1 -95 -2
-150 -7z m-2165 -2059 l0 -240 -119 0 -120 0 26 63 c55 136 196 417 210 417 2
0 3 -108 3 -240z"/>
<path d="M5170 6405 l0 -1985 200 0 200 0 0 1746 0 1746 49 -7 c26 -3 79 -14
117 -24 l69 -17 3 -1722 2 -1722 873 2 872 3 5 1019 5 1020 67 -140 c175 -367
262 -726 283 -1164 6 -124 -6 -497 -21 -647 l-6 -63 196 0 c195 0 196 0 201
23 32 145 59 516 50 707 -36 844 -355 1603 -921 2199 -109 115 -268 261 -284
261 -7 0 -10 -464 -10 -1395 l0 -1395 -95 0 -95 0 0 1474 0 1474 -107 69
c-160 103 -317 193 -338 193 -3 0 -5 -722 -5 -1605 l0 -1605 -110 0 -110 0 0
1654 c0 1566 -1 1654 -17 1661 -163 67 -472 151 -678 184 -106 16 -328 40
-382 41 -10 0 -13 -404 -13 -1985z"/>
</g>
</svg>
